<?xml version="1.0" encoding="iso-8859-1"?>
<!-- Generator: Adobe Illustrator 23.0.4, SVG Export Plug-In . SVG Version: 6.00 Build 0)  -->
<svg version="1.1" xmlns="http://www.w3.org/2000/svg" xmlns:xlink="http://www.w3.org/1999/xlink" x="0px" y="0px"
	 viewBox="0 0 64 64" style="enable-background:new 0 0 64 64;" xml:space="preserve">
<g id="bottle-10">
	<path style="fill:#43692E;" d="M35.83,9.607V4.948h0.317c0.378,0,0.688-0.31,0.688-0.688V0.688C36.834,0.31,36.525,0,36.146,0
		h-8.293c-0.385,0-0.688,0.31-0.688,0.688V4.26c0,0.378,0.303,0.688,0.688,0.688h0.358c0.007,0.647,0,1.941-0.034,4.466V9.6
		c-4.508,8.568-7.797,29.371-8.01,50.732c-0.014,0.977,0.358,1.899,1.046,2.594S22.816,64,23.787,64h16.427
		c0.97,0,1.886-0.378,2.574-1.074c0.688-0.695,1.06-1.617,1.046-2.594C43.62,38.971,40.33,18.175,35.83,9.607z M28.542,1.376h6.916
		v2.195h-6.916V1.376z M41.81,61.956c-0.427,0.434-0.998,0.668-1.597,0.668H23.787c-0.599,0-1.17-0.234-1.597-0.668
		c-0.427-0.434-0.654-1.005-0.647-1.61c0.248-24.843,4.28-43.458,7.928-50.243c0.048-0.096,0.076-0.206,0.083-0.317V9.435
		c0.034-2.484,0.041-3.778,0.034-4.487h4.865v4.831c0,0.117,0.028,0.227,0.076,0.323c3.647,6.785,7.68,25.4,7.928,50.243
		C42.464,60.951,42.237,61.523,41.81,61.956z"/>
	<path style="fill:#87C234;" d="M34.529,10.102c-0.048-0.096-0.076-0.206-0.076-0.323V4.948h-4.865c0.007,0.709,0,2.003-0.034,4.487
		v0.351c-0.007,0.11-0.034,0.22-0.083,0.317c-3.647,6.785-7.68,25.4-7.928,50.243c-0.007,0.606,0.22,1.177,0.647,1.61
		c0.427,0.434,0.998,0.668,1.597,0.668h16.427c0.599,0,1.17-0.234,1.597-0.668c0.427-0.434,0.654-1.005,0.647-1.61
		C42.209,35.503,38.176,16.888,34.529,10.102z M41.025,61.048c-0.33,0.33-0.757,0.516-1.218,0.516v-0.688
		c0.275,0,0.53-0.11,0.729-0.31c0.193-0.2,0.303-0.461,0.303-0.736c-0.089-10.089-0.819-17.789-1.363-22.71l0.688-0.076
		c0.544,4.934,1.273,12.655,1.363,22.778C41.528,60.284,41.349,60.724,41.025,61.048z"/>
</g>
<g id="Layer_1">
</g>
</svg>
