<?xml version="1.0" encoding="iso-8859-1"?>
<!-- Generator: Adobe Illustrator 23.0.4, SVG Export Plug-In . SVG Version: 6.00 Build 0)  -->
<svg version="1.1" xmlns="http://www.w3.org/2000/svg" xmlns:xlink="http://www.w3.org/1999/xlink" x="0px" y="0px"
	 viewBox="0 0 64 64" style="enable-background:new 0 0 64 64;" xml:space="preserve">
<g id="bottle-02">
	<path style="fill:#4EA1B7;" d="M40.375,24.774l-2.87-6.455c-0.041-0.089-0.069-0.193-0.076-0.296L36.06,4.322h0.22
		c0.22,0,0.427-0.11,0.557-0.289c0.131-0.179,0.165-0.406,0.096-0.619L35.95,0.468C35.861,0.186,35.592,0,35.296,0h-6.593
		c-0.296,0-0.564,0.186-0.654,0.468l-0.984,2.945c-0.069,0.213-0.034,0.44,0.096,0.619c0.131,0.179,0.337,0.289,0.557,0.289h0.22
		L26.57,18.023c-0.007,0.103-0.034,0.206-0.076,0.296l-2.87,6.462c-0.674,1.5-1.012,3.104-1.012,4.755V61.66
		c0,1.287,1.053,2.34,2.34,2.34h14.094c1.287,0,2.34-1.053,2.34-2.34V29.536C41.387,27.885,41.049,26.281,40.375,24.774z
		 M40.01,61.66c0,0.53-0.434,0.963-0.963,0.963H24.953c-0.53,0-0.963-0.434-0.963-0.963V29.536c0-1.459,0.303-2.87,0.888-4.198
		l2.87-6.455c0.103-0.227,0.165-0.475,0.193-0.723l1.383-13.839h3.358V2.945h-4.005l0.523-1.569h5.602l0.523,1.569h-0.028
		c-0.193,0-0.379,0.083-0.509,0.227c-0.131,0.144-0.193,0.337-0.172,0.53l1.445,14.459c0.028,0.248,0.089,0.496,0.193,0.723
		l2.87,6.455c0.585,1.328,0.888,2.739,0.888,4.198V61.66z"/>
	<path style="fill:#71BAC6;" d="M39.123,25.338l-2.87-6.455c-0.103-0.227-0.165-0.475-0.193-0.723L34.615,3.702
		c-0.021-0.193,0.041-0.385,0.172-0.53c0.131-0.145,0.317-0.227,0.509-0.227h0.028l-0.523-1.569h-5.602l-0.523,1.569h4.005v1.376
		h-3.358L27.94,18.161c-0.028,0.248-0.089,0.496-0.193,0.723l-2.87,6.455c-0.585,1.328-0.888,2.739-0.888,4.198V61.66
		c0,0.53,0.434,0.963,0.963,0.963h14.094c0.53,0,0.963-0.434,0.963-0.963V29.536C40.01,28.077,39.708,26.667,39.123,25.338z
		 M38.792,60.126h-0.688V30.073c0-1.28-0.262-2.519-0.784-3.689l-2.457-5.526c-0.076-0.172-0.124-0.358-0.138-0.544l0.681-0.069
		c0.014,0.117,0.041,0.227,0.089,0.33l2.457,5.526c0.557,1.259,0.84,2.594,0.84,3.971V60.126z"/>
</g>
<g id="Layer_1">
</g>
</svg>
