<?xml version="1.0" encoding="iso-8859-1"?>
<!-- Generator: Adobe Illustrator 23.0.4, SVG Export Plug-In . SVG Version: 6.00 Build 0)  -->
<svg version="1.1" xmlns="http://www.w3.org/2000/svg" xmlns:xlink="http://www.w3.org/1999/xlink" x="0px" y="0px"
	 viewBox="0 0 64 64" style="enable-background:new 0 0 64 64;" xml:space="preserve">
<g id="bottle-08">
	<path style="fill:#1C430B;" d="M37.949,11.974v-1.755h0.523c0.378,0,0.688-0.303,0.688-0.688V4.033c0-0.378-0.31-0.688-0.688-0.688
		h-1.576V0.688C36.896,0.31,36.594,0,36.208,0h-8.423c-0.378,0-0.688,0.31-0.688,0.688v2.656h-1.569
		c-0.378,0-0.688,0.31-0.688,0.688v5.498c0,0.385,0.31,0.688,0.688,0.688h0.523v1.755c-1.665,0.86-7.776,4.48-7.776,11.217v37.264
		c0,1.954,1.59,3.544,3.544,3.544h20.356c1.954,0,3.551-1.59,3.551-3.544V23.191C45.726,16.454,39.615,12.834,37.949,11.974z
		 M28.473,1.376h7.047v1.968h-7.047V1.376z M26.216,4.721h11.568v4.122H26.216V4.721z M44.349,60.456
		c0,1.191-0.977,2.168-2.175,2.168H21.818c-1.191,0-2.168-0.977-2.168-2.168V23.191c0-6.744,7.301-10.13,7.37-10.157
		c0.248-0.117,0.406-0.358,0.406-0.633v-2.181h9.146v2.181c0,0.275,0.158,0.516,0.399,0.633c0.076,0.028,7.377,3.413,7.377,10.157
		V60.456z"/>
	<path style="fill:#B7CC40;" d="M36.972,13.034c-0.241-0.117-0.399-0.358-0.399-0.633v-2.181h-9.146v2.181
		c0,0.275-0.158,0.516-0.406,0.633c-0.069,0.028-7.37,3.413-7.37,10.157v37.264c0,1.191,0.977,2.168,2.168,2.168h20.356
		c1.197,0,2.175-0.977,2.175-2.168V23.191C44.349,16.447,37.048,13.061,36.972,13.034z M43.062,58.357h-0.688V23.99
		c0-6.022-6.476-9.015-6.545-9.043l0.282-0.626c0.069,0.034,6.951,3.207,6.951,9.669V58.357z"/>
</g>
<g id="Layer_1">
</g>
</svg>
