<?xml version="1.0" encoding="iso-8859-1"?>
<!-- Generator: Adobe Illustrator 23.0.4, SVG Export Plug-In . SVG Version: 6.00 Build 0)  -->
<svg version="1.1" xmlns="http://www.w3.org/2000/svg" xmlns:xlink="http://www.w3.org/1999/xlink" x="0px" y="0px"
	 viewBox="0 0 64 64" style="enable-background:new 0 0 64 64;" xml:space="preserve">
<g id="bottle-06">
	<path style="fill:#DB2A18;" d="M26.002,39.916v0.841h12.719v-0.841H26.002z M26.002,46.646v0.841h12.719v-0.841H26.002z
		 M24.463,43.281v0.841h15.798v-0.841H24.463z M24.463,43.281v0.841h15.798v-0.841H24.463z M26.002,47.487h12.719v-0.841H26.002
		V47.487z M38.721,39.916H26.002v0.841h12.719V39.916z M32,34.019c-7.201,0-13.056,4.341-13.056,9.682
		c0,5.342,5.855,9.682,13.056,9.682s13.056-4.341,13.056-9.682C45.056,38.36,39.201,34.019,32,34.019z M32,51.701
		c-6.276,0-11.373-3.584-11.373-8s5.098-8,11.373-8s11.373,3.584,11.373,8S38.276,51.701,32,51.701z M24.463,44.122h15.798v-0.841
		H24.463V44.122z M26.002,47.487h12.719v-0.841H26.002V47.487z M38.721,39.916H26.002v0.841h12.719V39.916z M32,34.019
		c-7.201,0-13.056,4.341-13.056,9.682c0,5.342,5.855,9.682,13.056,9.682s13.056-4.341,13.056-9.682
		C45.056,38.36,39.201,34.019,32,34.019z M32,51.701c-6.276,0-11.373-3.584-11.373-8s5.098-8,11.373-8s11.373,3.584,11.373,8
		S38.276,51.701,32,51.701z M24.463,44.122h15.798v-0.841H24.463V44.122z M26.002,47.487h12.719v-0.841H26.002V47.487z
		 M38.721,39.916H26.002v0.841h12.719V39.916z M48.564,23.849c-1.371-1.085-3.045-2.397-4.694-3.718
		c-2.616-2.095-3.096-5.258-3.171-6.696c1.262-0.135,2.254-1.195,2.254-2.498V8.185c0-1.388-1.127-2.524-2.524-2.524h-0.606V3.365
		C39.823,1.514,38.309,0,36.458,0h-8.917c-1.851,0-3.365,1.514-3.365,3.365v2.297h-0.606c-1.396,0-2.524,1.136-2.524,2.524v2.751
		c0,1.304,0.993,2.364,2.263,2.498c-0.076,1.43-0.547,4.593-3.18,6.696c-1.649,1.321-3.323,2.633-4.694,3.71
		c-2.137,1.682-3.213,4.761-2.742,7.849l4.677,30.452C17.539,63.218,18.347,64,19.298,64h25.405c0.951,0,1.758-0.782,1.926-1.859
		l4.677-30.452C51.777,28.601,50.7,25.523,48.564,23.849z M25.859,3.365c0-0.925,0.757-1.682,1.682-1.682h8.917
		c0.925,0,1.682,0.757,1.682,1.682v2.297H25.859V3.365z M22.73,10.936V8.185c0-0.463,0.379-0.841,0.841-0.841h16.858
		c0.463,0,0.841,0.379,0.841,0.841v2.751c0,0.463-0.379,0.841-0.841,0.841H23.571C23.108,11.777,22.73,11.399,22.73,10.936z
		 M49.64,31.436l-4.677,30.452c-0.05,0.303-0.21,0.429-0.261,0.429H19.298c-0.05,0-0.219-0.135-0.261-0.429L14.36,31.436
		c-0.379-2.465,0.471-4.98,2.111-6.267c1.38-1.085,3.054-2.406,4.711-3.727c3.188-2.549,3.735-6.284,3.811-7.983h14.015
		c0.076,1.699,0.622,5.434,3.811,7.983c1.657,1.321,3.331,2.641,4.711,3.727C49.169,26.456,50.019,28.972,49.64,31.436z M32,34.019
		c-7.201,0-13.056,4.341-13.056,9.682c0,5.342,5.855,9.682,13.056,9.682s13.056-4.341,13.056-9.682
		C45.056,38.36,39.201,34.019,32,34.019z M32,51.701c-6.276,0-11.373-3.584-11.373-8s5.098-8,11.373-8s11.373,3.584,11.373,8
		S38.276,51.701,32,51.701z M24.463,44.122h15.798v-0.841H24.463V44.122z M26.002,47.487h12.719v-0.841H26.002V47.487z
		 M38.721,39.916H26.002v0.841h12.719V39.916z M26.002,39.916v0.841h12.719v-0.841H26.002z M26.002,46.646v0.841h12.719v-0.841
		H26.002z M24.463,43.281v0.841h15.798v-0.841H24.463z M24.463,43.281v0.841h15.798v-0.841H24.463z M26.002,47.487h12.719v-0.841
		H26.002V47.487z M38.721,39.916H26.002v0.841h12.719V39.916z M32,34.019c-7.201,0-13.056,4.341-13.056,9.682
		c0,5.342,5.855,9.682,13.056,9.682s13.056-4.341,13.056-9.682C45.056,38.36,39.201,34.019,32,34.019z M32,51.701
		c-6.276,0-11.373-3.584-11.373-8s5.098-8,11.373-8s11.373,3.584,11.373,8S38.276,51.701,32,51.701z M24.463,44.122h15.798v-0.841
		H24.463V44.122z M26.002,47.487h12.719v-0.841H26.002V47.487z M38.721,39.916H26.002v0.841h12.719V39.916z M26.002,39.916v0.841
		h12.719v-0.841H26.002z M26.002,46.646v0.841h12.719v-0.841H26.002z M24.463,43.281v0.841h15.798v-0.841H24.463z M24.463,43.281
		v0.841h15.798v-0.841H24.463z M26.002,47.487h12.719v-0.841H26.002V47.487z M38.721,39.916H26.002v0.841h12.719V39.916z M32,34.019
		c-7.201,0-13.056,4.341-13.056,9.682c0,5.342,5.855,9.682,13.056,9.682s13.056-4.341,13.056-9.682
		C45.056,38.36,39.201,34.019,32,34.019z M32,51.701c-6.276,0-11.373-3.584-11.373-8s5.098-8,11.373-8s11.373,3.584,11.373,8
		S38.276,51.701,32,51.701z M24.463,44.122h15.798v-0.841H24.463V44.122z M26.002,47.487h12.719v-0.841H26.002V47.487z
		 M38.721,39.916H26.002v0.841h12.719V39.916z M26.002,39.916v0.841h12.719v-0.841H26.002z M26.002,46.646v0.841h12.719v-0.841
		H26.002z M24.463,43.281v0.841h15.798v-0.841H24.463z M24.463,43.281v0.841h15.798v-0.841H24.463z M26.002,39.916v0.841h12.719
		v-0.841H26.002z M26.002,46.646v0.841h12.719v-0.841H26.002z"/>
	<path style="fill:#F6EADD;" d="M32,35.701c-6.276,0-11.373,3.584-11.373,8s5.098,8,11.373,8s11.373-3.584,11.373-8
		S38.276,35.701,32,35.701z M26.002,39.916h12.719v0.841H26.002V39.916z M38.721,47.487H26.002v-0.841h12.719V47.487z
		 M40.261,44.122H24.463v-0.841h15.798V44.122z"/>
	<path style="fill:#F98262;" d="M47.529,25.169c-1.38-1.085-3.054-2.406-4.711-3.727c-3.188-2.549-3.735-6.284-3.811-7.983H24.993
		c-0.076,1.699-0.622,5.434-3.811,7.983c-1.657,1.321-3.331,2.641-4.711,3.727c-1.64,1.287-2.49,3.802-2.111,6.267l4.677,30.452
		c0.042,0.294,0.21,0.429,0.261,0.429h25.405c0.05,0,0.21-0.126,0.261-0.429l4.677-30.452
		C50.019,28.972,49.169,26.456,47.529,25.169z M32,53.384c-7.201,0-13.056-4.341-13.056-9.682c0-5.342,5.855-9.682,13.056-9.682
		s13.056,4.341,13.056,9.682C45.056,49.043,39.201,53.384,32,53.384z"/>
</g>
<g id="Layer_1">
</g>
</svg>
