<?xml version="1.0" encoding="iso-8859-1"?>
<!-- Generator: Adobe Illustrator 23.0.4, SVG Export Plug-In . SVG Version: 6.00 Build 0)  -->
<svg version="1.1" xmlns="http://www.w3.org/2000/svg" xmlns:xlink="http://www.w3.org/1999/xlink" x="0px" y="0px"
	 viewBox="0 0 64 64" style="enable-background:new 0 0 64 64;" xml:space="preserve">
<g id="bottle-11">
	<path style="fill:#8E815E;" d="M36.971,22.128L36.381,3.404h0.698c0.248,0,0.47-0.134,0.591-0.349
		c0.114-0.215,0.107-0.477-0.027-0.685l-1.349-2.061C36.172,0.114,35.917,0,35.689,0h-7.378c-0.228,0-0.436,0.114-0.564,0.309
		L26.404,2.37c-0.134,0.208-0.148,0.47-0.027,0.685c0.114,0.215,0.342,0.349,0.591,0.349h0.651l-0.591,18.751
		c-0.987,0.631-3.666,2.719-3.666,6.808v32.816c0,1.229,0.994,2.222,2.215,2.222h12.843c1.222,0,2.215-0.994,2.215-2.222V28.962
		C40.637,24.625,38.005,22.712,36.971,22.128z M28.673,1.343h6.693l0.47,0.718h-0.101v0.013c-0.02,0-0.027-0.013-0.047-0.013h-7.486
		L28.673,1.343z M39.294,61.778c0,0.483-0.389,0.879-0.873,0.879H25.579c-0.477,0-0.873-0.396-0.873-0.879v-10.05h14.588V61.778z
		 M39.294,50.385H24.706V34.622h14.588V50.385z M39.294,33.279H24.706v-4.317c0-4.062,3.155-5.753,3.29-5.821
		c0.215-0.107,0.356-0.329,0.363-0.577l0.604-19.16h6.076l0.604,19.16c0.013,0.262,0.175,0.497,0.41,0.598
		c0.134,0.06,3.243,1.45,3.243,5.8V33.279z"/>
	<rect x="24.706" y="34.622" style="fill:#F6EADD;" width="14.588" height="15.763"/>
	<path style="fill:#D2C188;" d="M36.052,23.162c-0.235-0.101-0.396-0.336-0.41-0.598l-0.604-19.16h-6.076l-0.604,19.16
		c-0.007,0.248-0.148,0.47-0.363,0.577c-0.134,0.067-3.29,1.759-3.29,5.821v4.317h14.588v-4.317
		C39.294,24.612,36.186,23.222,36.052,23.162z M37.569,29.875c0-4.115-3.041-5.438-3.075-5.451l0.262-0.618
		c0.141,0.06,3.484,1.517,3.484,6.069H37.569z M24.706,51.728v10.05c0,0.483,0.396,0.879,0.873,0.879h12.843
		c0.483,0,0.873-0.396,0.873-0.879v-10.05H24.706z"/>
</g>
<g id="Layer_1">
</g>
</svg>
