<?xml version="1.0" encoding="iso-8859-1"?>
<!-- Generator: Adobe Illustrator 23.0.4, SVG Export Plug-In . SVG Version: 6.00 Build 0)  -->
<svg version="1.1" xmlns="http://www.w3.org/2000/svg" xmlns:xlink="http://www.w3.org/1999/xlink" x="0px" y="0px"
	 viewBox="0 0 64 64" style="enable-background:new 0 0 64 64;" xml:space="preserve">
<g id="bottle-03">
	<path style="fill:#6A4094;" d="M38.92,10.818c-0.564-0.22-0.936-0.757-0.936-1.369V5.209h0.557c0.378,0,0.688-0.303,0.688-0.688
		V0.688C39.229,0.31,38.92,0,38.541,0H25.466c-0.385,0-0.688,0.31-0.688,0.688v3.833c0,0.385,0.303,0.688,0.688,0.688h0.551v4.239
		c0,0.612-0.365,1.149-0.936,1.369c-3.73,1.452-6.145,4.982-6.145,8.988v43.506c0,0.379,0.31,0.688,0.688,0.688h24.754
		c0.385,0,0.688-0.31,0.688-0.688V19.806C45.065,15.8,42.656,12.27,38.92,10.818z M26.154,1.376h11.699v2.457H26.154V1.376z
		 M43.689,62.624H20.311V19.806c0-3.434,2.065-6.455,5.271-7.701c1.101-0.434,1.81-1.473,1.81-2.656V5.209h9.215v4.239
		c0,1.184,0.716,2.223,1.817,2.656c3.2,1.246,5.265,4.267,5.265,7.701V62.624z"/>
	<path style="fill:#CE97ED;" d="M38.424,12.105c-1.101-0.434-1.817-1.473-1.817-2.656V5.209h-9.215v4.239
		c0,1.184-0.709,2.223-1.81,2.656c-3.207,1.246-5.271,4.267-5.271,7.701v42.818h23.377V19.806
		C43.689,16.372,41.624,13.351,38.424,12.105z M42.133,60.339h-0.688V20.521c0-3.028-1.824-5.691-4.645-6.785l0.255-0.64
		c3.083,1.197,5.079,4.115,5.079,7.425V60.339z"/>
</g>
<g id="Layer_1">
</g>
</svg>
