<?xml version="1.0" encoding="iso-8859-1"?>
<!-- Generator: Adobe Illustrator 23.0.4, SVG Export Plug-In . SVG Version: 6.00 Build 0)  -->
<svg version="1.1" xmlns="http://www.w3.org/2000/svg" xmlns:xlink="http://www.w3.org/1999/xlink" x="0px" y="0px"
	 viewBox="0 0 64 64" style="enable-background:new 0 0 64 64;" xml:space="preserve">
<g id="bottle-01">
	<path style="fill:#91B938;" d="M41.318,51.923v9.621c0,0.592-0.489,1.08-1.087,1.08H23.763c-0.592,0-1.08-0.489-1.08-1.08v-9.621
		H41.318z M41.318,29.447v7.061H22.682v-7.061c0-7.391,5.677-8.526,5.918-8.568c0.323-0.062,0.564-0.344,0.564-0.681v-9.4h5.671v9.4
		c0,0.337,0.241,0.619,0.564,0.681C35.462,20.886,41.318,22.015,41.318,29.447z M40.107,30.08c0-7.04-5.705-8.141-5.767-8.148
		l-0.117,0.674c0.048,0.007,5.196,1.005,5.196,7.474v2.292h0.688V30.08z"/>
	<path style="fill:#4A484D;" d="M36.212,19.675V1.831C36.212,0.819,35.386,0,34.374,0h-4.748c-1.012,0-1.837,0.819-1.837,1.831
		v17.844c-1.672,0.53-6.483,2.663-6.483,9.772v32.096c0,1.356,1.108,2.457,2.457,2.457h16.468c1.356,0,2.464-1.101,2.464-2.457
		V29.447C42.694,22.338,37.884,20.205,36.212,19.675z M41.318,61.543c0,0.592-0.489,1.08-1.087,1.08H23.763
		c-0.592,0-1.08-0.489-1.08-1.08v-9.621h18.636V61.543z M41.318,50.546H22.682V37.884h18.636V50.546z M41.318,36.508H22.682v-7.061
		c0-7.391,5.677-8.526,5.918-8.568c0.323-0.062,0.564-0.344,0.564-0.681v-9.4h5.671v9.4c0,0.337,0.241,0.619,0.564,0.681
		c0.062,0.007,5.918,1.136,5.918,8.568V36.508z"/>
	<rect x="22.682" y="37.884" style="fill:#F6EADD;" width="18.636" height="12.662"/>
</g>
<g id="Layer_1">
</g>
</svg>
