<?xml version="1.0" encoding="iso-8859-1"?>
<!-- Generator: Adobe Illustrator 23.0.4, SVG Export Plug-In . SVG Version: 6.00 Build 0)  -->
<svg version="1.1" xmlns="http://www.w3.org/2000/svg" xmlns:xlink="http://www.w3.org/1999/xlink" x="0px" y="0px"
	 viewBox="0 0 64 64" style="enable-background:new 0 0 64 64;" xml:space="preserve">
<g id="bottle-07">
	<path style="fill:#BF9100;" d="M41.906,30.032c-0.232-0.213-0.463-0.42-0.683-0.628c-2.687-2.425-4.631-4.181-4.631-8.885V7.928
		c0.987-0.024,1.779-0.829,1.779-1.822V5.058c0-0.993-0.798-1.804-1.786-1.822V2.048C36.586,0.92,35.666,0,34.538,0h-5.082
		c-1.127,0-2.048,0.92-2.048,2.048v1.188c-0.987,0.018-1.786,0.829-1.786,1.822v1.048c0,0.993,0.798,1.798,1.779,1.822v12.59
		c0,4.699-1.938,6.454-4.625,8.885c-0.225,0.207-0.457,0.414-0.689,0.628c-3.163,2.901-5.82,6.959-3.858,16.935
		c1.28,6.515,2.761,11.731,3.528,14.26C22.265,62.885,23.77,64,25.507,64h12.98c1.737,0,3.248-1.115,3.748-2.773
		c0.945-3.09,2.316-8.075,3.535-14.26C47.732,36.991,45.075,32.932,41.906,30.032z M28.627,2.048c0-0.457,0.372-0.829,0.829-0.829
		h5.082c0.457,0,0.829,0.372,0.829,0.829V3.23h-6.74V2.048z M26.841,6.106V5.058c0-0.335,0.274-0.609,0.609-0.609h9.092
		c0.341,0,0.609,0.274,0.609,0.609v1.048c0,0.335-0.268,0.609-0.609,0.609h-9.092C27.116,6.716,26.841,6.441,26.841,6.106z
		 M44.575,46.735c-1.274,6.46-2.742,11.628-3.504,14.138c-0.347,1.14-1.383,1.907-2.584,1.907h-12.98
		c-1.194,0-2.237-0.768-2.584-1.907c-0.762-2.511-2.23-7.679-3.498-14.138c-1.018-5.168-1.67-11.079,3.486-15.808
		c0.232-0.213,0.457-0.414,0.683-0.622c2.7-2.438,5.028-4.546,5.028-9.787V7.934h6.752v12.584c0,5.241,2.328,7.349,5.028,9.793
		c0.225,0.201,0.451,0.402,0.683,0.615C43.789,33.408,46.513,36.875,44.575,46.735z"/>
	<path style="fill:#FEC800;" d="M41.083,30.927c-0.232-0.213-0.457-0.414-0.683-0.615c-2.7-2.444-5.028-4.552-5.028-9.793V7.934
		h-6.752v12.584c0,5.241-2.328,7.349-5.028,9.787c-0.225,0.207-0.451,0.408-0.683,0.622c-5.156,4.729-4.504,10.64-3.486,15.808
		c1.268,6.46,2.736,11.628,3.498,14.138c0.347,1.14,1.389,1.907,2.584,1.907h12.98c1.201,0,2.237-0.768,2.584-1.907
		c0.762-2.511,2.23-7.679,3.504-14.138C46.513,36.875,43.789,33.408,41.083,30.927z M43.381,46.766l-0.597-0.116
		c1.694-8.599-0.555-12.06-3.23-14.51l0.414-0.451C42.777,34.261,45.13,37.869,43.381,46.766z"/>
</g>
<g id="Layer_1">
</g>
</svg>
