<?xml version="1.0" encoding="iso-8859-1"?>
<!-- Generator: Adobe Illustrator 23.0.4, SVG Export Plug-In . SVG Version: 6.00 Build 0)  -->
<svg version="1.1" xmlns="http://www.w3.org/2000/svg" xmlns:xlink="http://www.w3.org/1999/xlink" x="0px" y="0px"
	 viewBox="0 0 64 64" style="enable-background:new 0 0 64 64;" xml:space="preserve">
<g id="bottle-05">
	<path style="fill:#062A42;" d="M36.708,49.863c-0.91,1.778-2.716,2.88-4.708,2.88c-2.005,0-3.812-1.116-4.722-2.916l-0.633,0.32
		c1.024,2.041,3.079,3.307,5.355,3.307c2.261,0,4.302-1.252,5.34-3.271L36.708,49.863z M32,41.458c-2.276,0-4.331,1.273-5.355,3.314
		l0.633,0.313c0.91-1.792,2.716-2.916,4.722-2.916c1.991,0,3.797,1.109,4.708,2.887l0.633-0.327
		C36.302,42.716,34.261,41.458,32,41.458z M32,41.458c-2.276,0-4.331,1.273-5.355,3.314l0.633,0.313
		c0.91-1.792,2.716-2.916,4.722-2.916c1.991,0,3.797,1.109,4.708,2.887l0.633-0.327C36.302,42.716,34.261,41.458,32,41.458z
		 M36.708,49.863c-0.91,1.778-2.716,2.88-4.708,2.88c-2.005,0-3.812-1.116-4.722-2.916l-0.633,0.32
		c1.024,2.041,3.079,3.307,5.355,3.307c2.261,0,4.302-1.252,5.34-3.271L36.708,49.863z M36.708,49.863
		c-0.91,1.778-2.716,2.88-4.708,2.88c-2.005,0-3.812-1.116-4.722-2.916l-0.633,0.32c1.024,2.041,3.079,3.307,5.355,3.307
		c2.261,0,4.302-1.252,5.34-3.271L36.708,49.863z M32,41.458c-2.276,0-4.331,1.273-5.355,3.314l0.633,0.313
		c0.91-1.792,2.716-2.916,4.722-2.916c1.991,0,3.797,1.109,4.708,2.887l0.633-0.327C36.302,42.716,34.261,41.458,32,41.458z
		 M32,42.169c1.991,0,3.797,1.109,4.708,2.887l0.633-0.327c-1.038-2.012-3.079-3.271-5.34-3.271c-2.276,0-4.331,1.273-5.355,3.314
		l0.633,0.313C28.188,43.292,29.995,42.169,32,42.169z M32,52.743c-2.005,0-3.812-1.116-4.722-2.916l-0.633,0.32
		c1.024,2.041,3.079,3.307,5.355,3.307c2.261,0,4.302-1.252,5.34-3.271l-0.633-0.32C35.797,51.641,33.991,52.743,32,52.743z
		 M42.133,31.73l-3.164-6.485c-1.422-2.901-2.169-6.137-2.169-9.365V4.8c0.391,0,0.711-0.32,0.711-0.711V0.711
		C37.511,0.32,37.191,0,36.8,0h-9.6c-0.391,0-0.711,0.32-0.711,0.711v3.378c0,0.327,0.228,0.59,0.533,0.676v11.221
		c0,3.157-0.718,6.336-2.076,9.188l-3.172,6.635c-1.451,3.044-2.219,6.436-2.219,9.806v19.541C19.556,62.72,20.828,64,22.4,64h19.2
		c1.572,0,2.844-1.28,2.844-2.844V41.721C44.444,38.279,43.648,34.823,42.133,31.73z M27.911,1.422h8.178v1.956h-8.178V1.422z
		 M43.022,61.156c0,0.782-0.64,1.422-1.422,1.422H22.4c-0.782,0-1.422-0.64-1.422-1.422V48.171h2.496
		c0.363,4.388,4.046,7.851,8.526,7.851c4.48,0,8.164-3.463,8.526-7.851h2.496V61.156z M24.86,47.46c0-3.94,3.207-7.14,7.14-7.14
		c3.94,0,7.14,3.2,7.14,7.14c0,3.932-3.2,7.14-7.14,7.14C28.068,54.599,24.86,51.392,24.86,47.46z M43.022,46.748h-2.496
		c-0.363-4.388-4.046-7.851-8.526-7.851c-4.48,0-8.164,3.463-8.526,7.851h-2.496v-5.134c0-3.164,0.718-6.336,2.084-9.195
		l3.164-6.635c1.451-3.036,2.219-6.428,2.219-9.799V4.8h6.933v11.079c0,3.442,0.796,6.898,2.311,9.991l3.172,6.485
		c1.415,2.894,2.162,6.137,2.162,9.365V46.748z M32,42.169c1.991,0,3.797,1.109,4.708,2.887l0.633-0.327
		c-1.038-2.012-3.079-3.271-5.34-3.271c-2.276,0-4.331,1.273-5.355,3.314l0.633,0.313C28.188,43.292,29.995,42.169,32,42.169z
		 M32,53.454c2.261,0,4.302-1.252,5.34-3.271l-0.633-0.32c-0.91,1.778-2.716,2.88-4.708,2.88c-2.005,0-3.812-1.116-4.722-2.916
		l-0.633,0.32C27.669,52.188,29.724,53.454,32,53.454z M36.708,49.863c-0.91,1.778-2.716,2.88-4.708,2.88
		c-2.005,0-3.812-1.116-4.722-2.916l-0.633,0.32c1.024,2.041,3.079,3.307,5.355,3.307c2.261,0,4.302-1.252,5.34-3.271L36.708,49.863
		z M32,41.458c-2.276,0-4.331,1.273-5.355,3.314l0.633,0.313c0.91-1.792,2.716-2.916,4.722-2.916c1.991,0,3.797,1.109,4.708,2.887
		l0.633-0.327C36.302,42.716,34.261,41.458,32,41.458z M32,41.458c-2.276,0-4.331,1.273-5.355,3.314l0.633,0.313
		c0.91-1.792,2.716-2.916,4.722-2.916c1.991,0,3.797,1.109,4.708,2.887l0.633-0.327C36.302,42.716,34.261,41.458,32,41.458z
		 M36.708,49.863c-0.91,1.778-2.716,2.88-4.708,2.88c-2.005,0-3.812-1.116-4.722-2.916l-0.633,0.32
		c1.024,2.041,3.079,3.307,5.355,3.307c2.261,0,4.302-1.252,5.34-3.271L36.708,49.863z"/>
	<path style="fill:#062A42;" d="M43.022,48.171v12.985c0,0.782-0.64,1.422-1.422,1.422H22.4c-0.782,0-1.422-0.64-1.422-1.422V48.171
		h2.496c0.363,4.388,4.046,7.851,8.526,7.851c4.48,0,8.164-3.463,8.526-7.851H43.022z"/>
	<path style="fill:#F6EADD;" d="M32,40.32c-3.932,0-7.14,3.2-7.14,7.14c0,3.932,3.207,7.14,7.14,7.14c3.94,0,7.14-3.207,7.14-7.14
		C39.14,43.52,35.94,40.32,32,40.32z M32,41.458c2.261,0,4.302,1.259,5.34,3.271l-0.633,0.327c-0.91-1.778-2.716-2.887-4.708-2.887
		c-2.005,0-3.812,1.124-4.722,2.916l-0.633-0.313C27.669,42.731,29.724,41.458,32,41.458z M32,53.454
		c-2.276,0-4.331-1.266-5.355-3.307l0.633-0.32c0.91,1.799,2.716,2.916,4.722,2.916c1.991,0,3.797-1.102,4.708-2.88l0.633,0.32
		C36.302,52.203,34.261,53.454,32,53.454z"/>
	<path style="fill:#82A3B9;" d="M43.022,41.721v5.028h-2.496c-0.363-4.388-4.046-7.851-8.526-7.851c-4.48,0-8.164,3.463-8.526,7.851
		h-2.496v-5.134c0-3.164,0.718-6.336,2.084-9.195l3.164-6.635c1.451-3.036,2.219-6.428,2.219-9.799V4.8h6.933v11.079
		c0,3.442,0.796,6.898,2.311,9.991l3.172,6.485C42.276,35.25,43.022,38.492,43.022,41.721z"/>
</g>
<g id="Layer_1">
</g>
</svg>
