<?xml version="1.0" encoding="iso-8859-1"?>
<!-- Generator: Adobe Illustrator 23.0.4, SVG Export Plug-In . SVG Version: 6.00 Build 0)  -->
<svg version="1.1" xmlns="http://www.w3.org/2000/svg" xmlns:xlink="http://www.w3.org/1999/xlink" x="0px" y="0px"
	 viewBox="0 0 64 64" style="enable-background:new 0 0 64 64;" xml:space="preserve">
<g id="bottle-04">
	<path style="fill:#A53C53;" d="M26.992,57.736v-7.721h-0.681v8.061c0,0.184,0.157,0.34,0.34,0.34h7.966v-0.681H26.992z
		 M31.997,33.566c-2.696,0-4.814,3.697-4.814,8.429c0,4.725,2.117,8.429,4.814,8.429c2.703,0,4.814-3.704,4.814-8.429
		C36.81,37.263,34.7,33.566,31.997,33.566z M31.997,49.062c-1.661,0-3.452-2.839-3.452-7.067c0-4.228,1.791-7.067,3.452-7.067
		c1.668,0,3.452,2.839,3.452,7.067C35.448,46.223,33.665,49.062,31.997,49.062z M37.341,25.845h-7.966v0.681h7.626v7.721h0.681
		v-8.061C37.682,25.995,37.532,25.845,37.341,25.845z M37.341,25.845h-7.966v0.681h7.626v7.721h0.681v-8.061
		C37.682,25.995,37.532,25.845,37.341,25.845z M31.997,33.566c-2.696,0-4.814,3.697-4.814,8.429c0,4.725,2.117,8.429,4.814,8.429
		c2.703,0,4.814-3.704,4.814-8.429C36.81,37.263,34.7,33.566,31.997,33.566z M31.997,49.062c-1.661,0-3.452-2.839-3.452-7.067
		c0-4.228,1.791-7.067,3.452-7.067c1.668,0,3.452,2.839,3.452,7.067C35.448,46.223,33.665,49.062,31.997,49.062z M26.992,57.736
		v-7.721h-0.681v8.061c0,0.184,0.157,0.34,0.34,0.34h7.966v-0.681H26.992z M26.992,57.736v-7.721h-0.681v8.061
		c0,0.184,0.157,0.34,0.34,0.34h7.966v-0.681H26.992z M31.997,33.566c-2.696,0-4.814,3.697-4.814,8.429
		c0,4.725,2.117,8.429,4.814,8.429c2.703,0,4.814-3.704,4.814-8.429C36.81,37.263,34.7,33.566,31.997,33.566z M31.997,49.062
		c-1.661,0-3.452-2.839-3.452-7.067c0-4.228,1.791-7.067,3.452-7.067c1.668,0,3.452,2.839,3.452,7.067
		C35.448,46.223,33.665,49.062,31.997,49.062z M37.341,25.845h-7.966v0.681h7.626v7.721h0.681v-8.061
		C37.682,25.995,37.532,25.845,37.341,25.845z M37.341,25.845h-7.966v0.681h7.626v7.721h0.681v-8.061
		C37.682,25.995,37.532,25.845,37.341,25.845z M31.997,33.566c-2.696,0-4.814,3.697-4.814,8.429c0,4.725,2.117,8.429,4.814,8.429
		c2.703,0,4.814-3.704,4.814-8.429C36.81,37.263,34.7,33.566,31.997,33.566z M31.997,49.062c-1.661,0-3.452-2.839-3.452-7.067
		c0-4.228,1.791-7.067,3.452-7.067c1.668,0,3.452,2.839,3.452,7.067C35.448,46.223,33.665,49.062,31.997,49.062z M26.992,50.015
		h-0.681v8.061c0,0.184,0.157,0.34,0.34,0.34h7.966v-0.681h-7.626V50.015z M38.431,23.666H25.569c-0.749,0-1.362,0.606-1.362,1.362
		v33.934c0,0.749,0.613,1.362,1.362,1.362h12.861c0.749,0,1.362-0.613,1.362-1.362V25.028C39.792,24.272,39.18,23.666,38.431,23.666
		z M38.431,58.962H25.569V25.028h12.861V58.962z M37.001,34.247h0.681v-8.061c0-0.191-0.15-0.34-0.34-0.34h-7.966v0.681h7.626
		V34.247z M31.997,50.424c2.703,0,4.814-3.704,4.814-8.429c0-4.732-2.111-8.429-4.814-8.429c-2.696,0-4.814,3.697-4.814,8.429
		C27.183,46.72,29.3,50.424,31.997,50.424z M31.997,34.928c1.668,0,3.452,2.839,3.452,7.067c0,4.228-1.784,7.067-3.452,7.067
		c-1.661,0-3.452-2.839-3.452-7.067C28.545,37.767,30.335,34.928,31.997,34.928z M26.652,58.417h7.966v-0.681h-7.626v-7.721h-0.681
		v8.061C26.311,58.26,26.468,58.417,26.652,58.417z M26.992,57.736v-7.721h-0.681v8.061c0,0.184,0.157,0.34,0.34,0.34h7.966v-0.681
		H26.992z M31.997,33.566c-2.696,0-4.814,3.697-4.814,8.429c0,4.725,2.117,8.429,4.814,8.429c2.703,0,4.814-3.704,4.814-8.429
		C36.81,37.263,34.7,33.566,31.997,33.566z M31.997,49.062c-1.661,0-3.452-2.839-3.452-7.067c0-4.228,1.791-7.067,3.452-7.067
		c1.668,0,3.452,2.839,3.452,7.067C35.448,46.223,33.665,49.062,31.997,49.062z M37.341,25.845h-7.966v0.681h7.626v7.721h0.681
		v-8.061C37.682,25.995,37.532,25.845,37.341,25.845z M37.341,25.845h-7.966v0.681h7.626v7.721h0.681v-8.061
		C37.682,25.995,37.532,25.845,37.341,25.845z M31.997,33.566c-2.696,0-4.814,3.697-4.814,8.429c0,4.725,2.117,8.429,4.814,8.429
		c2.703,0,4.814-3.704,4.814-8.429C36.81,37.263,34.7,33.566,31.997,33.566z M31.997,49.062c-1.661,0-3.452-2.839-3.452-7.067
		c0-4.228,1.791-7.067,3.452-7.067c1.668,0,3.452,2.839,3.452,7.067C35.448,46.223,33.665,49.062,31.997,49.062z M26.992,57.736
		v-7.721h-0.681v8.061c0,0.184,0.157,0.34,0.34,0.34h7.966v-0.681H26.992z M26.992,57.736v-7.721h-0.681v8.061
		c0,0.184,0.157,0.34,0.34,0.34h7.966v-0.681H26.992z M31.997,33.566c-2.696,0-4.814,3.697-4.814,8.429
		c0,4.725,2.117,8.429,4.814,8.429c2.703,0,4.814-3.704,4.814-8.429C36.81,37.263,34.7,33.566,31.997,33.566z M31.997,49.062
		c-1.661,0-3.452-2.839-3.452-7.067c0-4.228,1.791-7.067,3.452-7.067c1.668,0,3.452,2.839,3.452,7.067
		C35.448,46.223,33.665,49.062,31.997,49.062z M37.341,25.845h-7.966v0.681h7.626v7.721h0.681v-8.061
		C37.682,25.995,37.532,25.845,37.341,25.845z M37.341,25.845h-7.966v0.681h7.626v7.721h0.681v-8.061
		C37.682,25.995,37.532,25.845,37.341,25.845z M31.997,33.566c-2.696,0-4.814,3.697-4.814,8.429c0,4.725,2.117,8.429,4.814,8.429
		c2.703,0,4.814-3.704,4.814-8.429C36.81,37.263,34.7,33.566,31.997,33.566z M31.997,49.062c-1.661,0-3.452-2.839-3.452-7.067
		c0-4.228,1.791-7.067,3.452-7.067c1.668,0,3.452,2.839,3.452,7.067C35.448,46.223,33.665,49.062,31.997,49.062z M26.992,50.015
		h-0.681v8.061c0,0.184,0.157,0.34,0.34,0.34h7.966v-0.681h-7.626V50.015z M38.431,23.666H25.569c-0.749,0-1.362,0.606-1.362,1.362
		v33.934c0,0.749,0.613,1.362,1.362,1.362h12.861c0.749,0,1.362-0.613,1.362-1.362V25.028C39.792,24.272,39.18,23.666,38.431,23.666
		z M38.431,58.962H25.569V25.028h12.861V58.962z M37.001,34.247h0.681v-8.061c0-0.191-0.15-0.34-0.34-0.34h-7.966v0.681h7.626
		V34.247z M31.997,50.424c2.703,0,4.814-3.704,4.814-8.429c0-4.732-2.111-8.429-4.814-8.429c-2.696,0-4.814,3.697-4.814,8.429
		C27.183,46.72,29.3,50.424,31.997,50.424z M31.997,34.928c1.668,0,3.452,2.839,3.452,7.067c0,4.228-1.784,7.067-3.452,7.067
		c-1.661,0-3.452-2.839-3.452-7.067C28.545,37.767,30.335,34.928,31.997,34.928z M26.652,58.417h7.966v-0.681h-7.626v-7.721h-0.681
		v8.061C26.311,58.26,26.468,58.417,26.652,58.417z M26.992,57.736v-7.721h-0.681v8.061c0,0.184,0.157,0.34,0.34,0.34h7.966v-0.681
		H26.992z M31.997,33.566c-2.696,0-4.814,3.697-4.814,8.429c0,4.725,2.117,8.429,4.814,8.429c2.703,0,4.814-3.704,4.814-8.429
		C36.81,37.263,34.7,33.566,31.997,33.566z M31.997,49.062c-1.661,0-3.452-2.839-3.452-7.067c0-4.228,1.791-7.067,3.452-7.067
		c1.668,0,3.452,2.839,3.452,7.067C35.448,46.223,33.665,49.062,31.997,49.062z M37.341,25.845h-7.966v0.681h7.626v7.721h0.681
		v-8.061C37.682,25.995,37.532,25.845,37.341,25.845z M37.341,25.845h-7.966v0.681h7.626v7.721h0.681v-8.061
		C37.682,25.995,37.532,25.845,37.341,25.845z M31.997,33.566c-2.696,0-4.814,3.697-4.814,8.429c0,4.725,2.117,8.429,4.814,8.429
		c2.703,0,4.814-3.704,4.814-8.429C36.81,37.263,34.7,33.566,31.997,33.566z M31.997,49.062c-1.661,0-3.452-2.839-3.452-7.067
		c0-4.228,1.791-7.067,3.452-7.067c1.668,0,3.452,2.839,3.452,7.067C35.448,46.223,33.665,49.062,31.997,49.062z M26.992,57.736
		v-7.721h-0.681v8.061c0,0.184,0.157,0.34,0.34,0.34h7.966v-0.681H26.992z M26.992,57.736v-7.721h-0.681v8.061
		c0,0.184,0.157,0.34,0.34,0.34h7.966v-0.681H26.992z M31.997,33.566c-2.696,0-4.814,3.697-4.814,8.429
		c0,4.725,2.117,8.429,4.814,8.429c2.703,0,4.814-3.704,4.814-8.429C36.81,37.263,34.7,33.566,31.997,33.566z M31.997,49.062
		c-1.661,0-3.452-2.839-3.452-7.067c0-4.228,1.791-7.067,3.452-7.067c1.668,0,3.452,2.839,3.452,7.067
		C35.448,46.223,33.665,49.062,31.997,49.062z M37.341,25.845h-7.966v0.681h7.626v7.721h0.681v-8.061
		C37.682,25.995,37.532,25.845,37.341,25.845z M37.341,25.845h-7.966v0.681h7.626v7.721h0.681v-8.061
		C37.682,25.995,37.532,25.845,37.341,25.845z M31.997,33.566c-2.696,0-4.814,3.697-4.814,8.429c0,4.725,2.117,8.429,4.814,8.429
		c2.703,0,4.814-3.704,4.814-8.429C36.81,37.263,34.7,33.566,31.997,33.566z M31.997,49.062c-1.661,0-3.452-2.839-3.452-7.067
		c0-4.228,1.791-7.067,3.452-7.067c1.668,0,3.452,2.839,3.452,7.067C35.448,46.223,33.665,49.062,31.997,49.062z M26.992,50.015
		h-0.681v8.061c0,0.184,0.157,0.34,0.34,0.34h7.966v-0.681h-7.626V50.015z M38.431,23.666H25.569c-0.749,0-1.362,0.606-1.362,1.362
		v33.934c0,0.749,0.613,1.362,1.362,1.362h12.861c0.749,0,1.362-0.613,1.362-1.362V25.028C39.792,24.272,39.18,23.666,38.431,23.666
		z M38.431,58.962H25.569V25.028h12.861V58.962z M37.001,34.247h0.681v-8.061c0-0.191-0.15-0.34-0.34-0.34h-7.966v0.681h7.626
		V34.247z M31.997,50.424c2.703,0,4.814-3.704,4.814-8.429c0-4.732-2.111-8.429-4.814-8.429c-2.696,0-4.814,3.697-4.814,8.429
		C27.183,46.72,29.3,50.424,31.997,50.424z M31.997,34.928c1.668,0,3.452,2.839,3.452,7.067c0,4.228-1.784,7.067-3.452,7.067
		c-1.661,0-3.452-2.839-3.452-7.067C28.545,37.767,30.335,34.928,31.997,34.928z M26.652,58.417h7.966v-0.681h-7.626v-7.721h-0.681
		v8.061C26.311,58.26,26.468,58.417,26.652,58.417z M38.431,23.666H25.569c-0.749,0-1.362,0.606-1.362,1.362v33.934
		c0,0.749,0.613,1.362,1.362,1.362h12.861c0.749,0,1.362-0.613,1.362-1.362V25.028C39.792,24.272,39.18,23.666,38.431,23.666z
		 M38.431,58.962H25.569V25.028h12.861V58.962z M37.001,34.247h0.681v-8.061c0-0.191-0.15-0.34-0.34-0.34h-7.966v0.681h7.626V34.247
		z M31.997,50.424c2.703,0,4.814-3.704,4.814-8.429c0-4.732-2.111-8.429-4.814-8.429c-2.696,0-4.814,3.697-4.814,8.429
		C27.183,46.72,29.3,50.424,31.997,50.424z M31.997,34.928c1.668,0,3.452,2.839,3.452,7.067c0,4.228-1.784,7.067-3.452,7.067
		c-1.661,0-3.452-2.839-3.452-7.067C28.545,37.767,30.335,34.928,31.997,34.928z M26.652,58.417h7.966v-0.681h-7.626v-7.721h-0.681
		v8.061C26.311,58.26,26.468,58.417,26.652,58.417z M41.597,18.049c-0.443-0.34-1.008-0.776-1.736-1.328
		c-2.002-1.505-3.336-5.42-3.54-6.046V4.759h0.279c0.375,0,0.681-0.306,0.681-0.681V0.681C37.28,0.306,36.974,0,36.599,0h-9.198
		C27.02,0,26.72,0.306,26.72,0.681v3.397c0,0.374,0.3,0.681,0.681,0.681h0.306c0.02,1.212-0.007,4.024-0.027,5.917
		c-0.204,0.613-1.539,4.541-3.54,6.046c-0.729,0.552-1.3,0.987-1.736,1.328c-1.008,0.783-1.58,1.954-1.58,3.227v40
		c0,1.498,1.219,2.723,2.723,2.723h16.906c1.505,0,2.723-1.226,2.723-2.723v-40C43.176,20.01,42.597,18.832,41.597,18.049z
		 M28.082,1.362h7.837v2.036h-7.837V1.362z M29.069,4.759h5.889v5.345h-5.91C29.083,7.088,29.083,5.549,29.069,4.759z
		 M41.814,61.277c0,0.749-0.613,1.362-1.362,1.362H23.547c-0.756,0-1.362-0.613-1.362-1.362v-40c0-0.844,0.381-1.634,1.048-2.151
		c0.436-0.34,1.001-0.769,1.723-1.314c2.083-1.566,3.445-5.059,3.894-6.346h6.298c0.449,1.287,1.811,4.78,3.888,6.346
		c0.722,0.545,1.287,0.974,1.723,1.314c0.674,0.517,1.055,1.307,1.055,2.151V61.277z M38.431,23.666H25.569
		c-0.749,0-1.362,0.606-1.362,1.362v33.934c0,0.749,0.613,1.362,1.362,1.362h12.861c0.749,0,1.362-0.613,1.362-1.362V25.028
		C39.792,24.272,39.18,23.666,38.431,23.666z M38.431,58.962H25.569V25.028h12.861V58.962z M37.001,34.247h0.681v-8.061
		c0-0.191-0.15-0.34-0.34-0.34h-7.966v0.681h7.626V34.247z M31.997,50.424c2.703,0,4.814-3.704,4.814-8.429
		c0-4.732-2.111-8.429-4.814-8.429c-2.696,0-4.814,3.697-4.814,8.429C27.183,46.72,29.3,50.424,31.997,50.424z M31.997,34.928
		c1.668,0,3.452,2.839,3.452,7.067c0,4.228-1.784,7.067-3.452,7.067c-1.661,0-3.452-2.839-3.452-7.067
		C28.545,37.767,30.335,34.928,31.997,34.928z M26.652,58.417h7.966v-0.681h-7.626v-7.721h-0.681v8.061
		C26.311,58.26,26.468,58.417,26.652,58.417z M26.992,57.736v-7.721h-0.681v8.061c0,0.184,0.157,0.34,0.34,0.34h7.966v-0.681H26.992
		z M31.997,33.566c-2.696,0-4.814,3.697-4.814,8.429c0,4.725,2.117,8.429,4.814,8.429c2.703,0,4.814-3.704,4.814-8.429
		C36.81,37.263,34.7,33.566,31.997,33.566z M31.997,49.062c-1.661,0-3.452-2.839-3.452-7.067c0-4.228,1.791-7.067,3.452-7.067
		c1.668,0,3.452,2.839,3.452,7.067C35.448,46.223,33.665,49.062,31.997,49.062z M37.341,25.845h-7.966v0.681h7.626v7.721h0.681
		v-8.061C37.682,25.995,37.532,25.845,37.341,25.845z M37.341,25.845h-7.966v0.681h7.626v7.721h0.681v-8.061
		C37.682,25.995,37.532,25.845,37.341,25.845z M31.997,33.566c-2.696,0-4.814,3.697-4.814,8.429c0,4.725,2.117,8.429,4.814,8.429
		c2.703,0,4.814-3.704,4.814-8.429C36.81,37.263,34.7,33.566,31.997,33.566z M31.997,49.062c-1.661,0-3.452-2.839-3.452-7.067
		c0-4.228,1.791-7.067,3.452-7.067c1.668,0,3.452,2.839,3.452,7.067C35.448,46.223,33.665,49.062,31.997,49.062z M26.992,50.015
		h-0.681v8.061c0,0.184,0.157,0.34,0.34,0.34h7.966v-0.681h-7.626V50.015z M38.431,23.666H25.569c-0.749,0-1.362,0.606-1.362,1.362
		v33.934c0,0.749,0.613,1.362,1.362,1.362h12.861c0.749,0,1.362-0.613,1.362-1.362V25.028C39.792,24.272,39.18,23.666,38.431,23.666
		z M38.431,58.962H25.569V25.028h12.861V58.962z M37.001,34.247h0.681v-8.061c0-0.191-0.15-0.34-0.34-0.34h-7.966v0.681h7.626
		V34.247z M31.997,50.424c2.703,0,4.814-3.704,4.814-8.429c0-4.732-2.111-8.429-4.814-8.429c-2.696,0-4.814,3.697-4.814,8.429
		C27.183,46.72,29.3,50.424,31.997,50.424z M31.997,34.928c1.668,0,3.452,2.839,3.452,7.067c0,4.228-1.784,7.067-3.452,7.067
		c-1.661,0-3.452-2.839-3.452-7.067C28.545,37.767,30.335,34.928,31.997,34.928z M26.652,58.417h7.966v-0.681h-7.626v-7.721h-0.681
		v8.061C26.311,58.26,26.468,58.417,26.652,58.417z M26.992,57.736v-7.721h-0.681v8.061c0,0.184,0.157,0.34,0.34,0.34h7.966v-0.681
		H26.992z M31.997,33.566c-2.696,0-4.814,3.697-4.814,8.429c0,4.725,2.117,8.429,4.814,8.429c2.703,0,4.814-3.704,4.814-8.429
		C36.81,37.263,34.7,33.566,31.997,33.566z M31.997,49.062c-1.661,0-3.452-2.839-3.452-7.067c0-4.228,1.791-7.067,3.452-7.067
		c1.668,0,3.452,2.839,3.452,7.067C35.448,46.223,33.665,49.062,31.997,49.062z M37.341,25.845h-7.966v0.681h7.626v7.721h0.681
		v-8.061C37.682,25.995,37.532,25.845,37.341,25.845z M37.341,25.845h-7.966v0.681h7.626v7.721h0.681v-8.061
		C37.682,25.995,37.532,25.845,37.341,25.845z M31.997,33.566c-2.696,0-4.814,3.697-4.814,8.429c0,4.725,2.117,8.429,4.814,8.429
		c2.703,0,4.814-3.704,4.814-8.429C36.81,37.263,34.7,33.566,31.997,33.566z M31.997,49.062c-1.661,0-3.452-2.839-3.452-7.067
		c0-4.228,1.791-7.067,3.452-7.067c1.668,0,3.452,2.839,3.452,7.067C35.448,46.223,33.665,49.062,31.997,49.062z M26.992,50.015
		h-0.681v8.061c0,0.184,0.157,0.34,0.34,0.34h7.966v-0.681h-7.626V50.015z M38.431,23.666H25.569c-0.749,0-1.362,0.606-1.362,1.362
		v33.934c0,0.749,0.613,1.362,1.362,1.362h12.861c0.749,0,1.362-0.613,1.362-1.362V25.028C39.792,24.272,39.18,23.666,38.431,23.666
		z M38.431,58.962H25.569V25.028h12.861V58.962z M37.001,34.247h0.681v-8.061c0-0.191-0.15-0.34-0.34-0.34h-7.966v0.681h7.626
		V34.247z M31.997,50.424c2.703,0,4.814-3.704,4.814-8.429c0-4.732-2.111-8.429-4.814-8.429c-2.696,0-4.814,3.697-4.814,8.429
		C27.183,46.72,29.3,50.424,31.997,50.424z M31.997,34.928c1.668,0,3.452,2.839,3.452,7.067c0,4.228-1.784,7.067-3.452,7.067
		c-1.661,0-3.452-2.839-3.452-7.067C28.545,37.767,30.335,34.928,31.997,34.928z M26.652,58.417h7.966v-0.681h-7.626v-7.721h-0.681
		v8.061C26.311,58.26,26.468,58.417,26.652,58.417z M26.992,57.736v-7.721h-0.681v8.061c0,0.184,0.157,0.34,0.34,0.34h7.966v-0.681
		H26.992z M31.997,33.566c-2.696,0-4.814,3.697-4.814,8.429c0,4.725,2.117,8.429,4.814,8.429c2.703,0,4.814-3.704,4.814-8.429
		C36.81,37.263,34.7,33.566,31.997,33.566z M31.997,49.062c-1.661,0-3.452-2.839-3.452-7.067c0-4.228,1.791-7.067,3.452-7.067
		c1.668,0,3.452,2.839,3.452,7.067C35.448,46.223,33.665,49.062,31.997,49.062z M37.341,25.845h-7.966v0.681h7.626v7.721h0.681
		v-8.061C37.682,25.995,37.532,25.845,37.341,25.845z M37.341,25.845h-7.966v0.681h7.626v7.721h0.681v-8.061
		C37.682,25.995,37.532,25.845,37.341,25.845z M31.997,33.566c-2.696,0-4.814,3.697-4.814,8.429c0,4.725,2.117,8.429,4.814,8.429
		c2.703,0,4.814-3.704,4.814-8.429C36.81,37.263,34.7,33.566,31.997,33.566z M31.997,49.062c-1.661,0-3.452-2.839-3.452-7.067
		c0-4.228,1.791-7.067,3.452-7.067c1.668,0,3.452,2.839,3.452,7.067C35.448,46.223,33.665,49.062,31.997,49.062z M26.992,57.736
		v-7.721h-0.681v8.061c0,0.184,0.157,0.34,0.34,0.34h7.966v-0.681H26.992z M26.992,57.736v-7.721h-0.681v8.061
		c0,0.184,0.157,0.34,0.34,0.34h7.966v-0.681H26.992z M31.997,33.566c-2.696,0-4.814,3.697-4.814,8.429
		c0,4.725,2.117,8.429,4.814,8.429c2.703,0,4.814-3.704,4.814-8.429C36.81,37.263,34.7,33.566,31.997,33.566z M31.997,49.062
		c-1.661,0-3.452-2.839-3.452-7.067c0-4.228,1.791-7.067,3.452-7.067c1.668,0,3.452,2.839,3.452,7.067
		C35.448,46.223,33.665,49.062,31.997,49.062z M37.341,25.845h-7.966v0.681h7.626v7.721h0.681v-8.061
		C37.682,25.995,37.532,25.845,37.341,25.845z M37.341,25.845h-7.966v0.681h7.626v7.721h0.681v-8.061
		C37.682,25.995,37.532,25.845,37.341,25.845z M31.997,33.566c-2.696,0-4.814,3.697-4.814,8.429c0,4.725,2.117,8.429,4.814,8.429
		c2.703,0,4.814-3.704,4.814-8.429C36.81,37.263,34.7,33.566,31.997,33.566z M31.997,49.062c-1.661,0-3.452-2.839-3.452-7.067
		c0-4.228,1.791-7.067,3.452-7.067c1.668,0,3.452,2.839,3.452,7.067C35.448,46.223,33.665,49.062,31.997,49.062z M26.992,57.736
		v-7.721h-0.681v8.061c0,0.184,0.157,0.34,0.34,0.34h7.966v-0.681H26.992z M26.992,57.736v-7.721h-0.681v8.061
		c0,0.184,0.157,0.34,0.34,0.34h7.966v-0.681H26.992z M31.997,33.566c-2.696,0-4.814,3.697-4.814,8.429
		c0,4.725,2.117,8.429,4.814,8.429c2.703,0,4.814-3.704,4.814-8.429C36.81,37.263,34.7,33.566,31.997,33.566z M31.997,49.062
		c-1.661,0-3.452-2.839-3.452-7.067c0-4.228,1.791-7.067,3.452-7.067c1.668,0,3.452,2.839,3.452,7.067
		C35.448,46.223,33.665,49.062,31.997,49.062z M37.341,25.845h-7.966v0.681h7.626v7.721h0.681v-8.061
		C37.682,25.995,37.532,25.845,37.341,25.845z M37.341,25.845h-7.966v0.681h7.626v7.721h0.681v-8.061
		C37.682,25.995,37.532,25.845,37.341,25.845z M31.997,33.566c-2.696,0-4.814,3.697-4.814,8.429c0,4.725,2.117,8.429,4.814,8.429
		c2.703,0,4.814-3.704,4.814-8.429C36.81,37.263,34.7,33.566,31.997,33.566z M31.997,49.062c-1.661,0-3.452-2.839-3.452-7.067
		c0-4.228,1.791-7.067,3.452-7.067c1.668,0,3.452,2.839,3.452,7.067C35.448,46.223,33.665,49.062,31.997,49.062z M26.992,50.015
		h-0.681v8.061c0,0.184,0.157,0.34,0.34,0.34h7.966v-0.681h-7.626V50.015z M38.431,23.666H25.569c-0.749,0-1.362,0.606-1.362,1.362
		v33.934c0,0.749,0.613,1.362,1.362,1.362h12.861c0.749,0,1.362-0.613,1.362-1.362V25.028C39.792,24.272,39.18,23.666,38.431,23.666
		z M38.431,58.962H25.569V25.028h12.861V58.962z M37.001,34.247h0.681v-8.061c0-0.191-0.15-0.34-0.34-0.34h-7.966v0.681h7.626
		V34.247z M31.997,50.424c2.703,0,4.814-3.704,4.814-8.429c0-4.732-2.111-8.429-4.814-8.429c-2.696,0-4.814,3.697-4.814,8.429
		C27.183,46.72,29.3,50.424,31.997,50.424z M31.997,34.928c1.668,0,3.452,2.839,3.452,7.067c0,4.228-1.784,7.067-3.452,7.067
		c-1.661,0-3.452-2.839-3.452-7.067C28.545,37.767,30.335,34.928,31.997,34.928z M26.652,58.417h7.966v-0.681h-7.626v-7.721h-0.681
		v8.061C26.311,58.26,26.468,58.417,26.652,58.417z M26.992,57.736v-7.721h-0.681v8.061c0,0.184,0.157,0.34,0.34,0.34h7.966v-0.681
		H26.992z M31.997,33.566c-2.696,0-4.814,3.697-4.814,8.429c0,4.725,2.117,8.429,4.814,8.429c2.703,0,4.814-3.704,4.814-8.429
		C36.81,37.263,34.7,33.566,31.997,33.566z M31.997,49.062c-1.661,0-3.452-2.839-3.452-7.067c0-4.228,1.791-7.067,3.452-7.067
		c1.668,0,3.452,2.839,3.452,7.067C35.448,46.223,33.665,49.062,31.997,49.062z M37.341,25.845h-7.966v0.681h7.626v7.721h0.681
		v-8.061C37.682,25.995,37.532,25.845,37.341,25.845z M37.341,25.845h-7.966v0.681h7.626v7.721h0.681v-8.061
		C37.682,25.995,37.532,25.845,37.341,25.845z M31.997,33.566c-2.696,0-4.814,3.697-4.814,8.429c0,4.725,2.117,8.429,4.814,8.429
		c2.703,0,4.814-3.704,4.814-8.429C36.81,37.263,34.7,33.566,31.997,33.566z M31.997,49.062c-1.661,0-3.452-2.839-3.452-7.067
		c0-4.228,1.791-7.067,3.452-7.067c1.668,0,3.452,2.839,3.452,7.067C35.448,46.223,33.665,49.062,31.997,49.062z M26.992,57.736
		v-7.721h-0.681v8.061c0,0.184,0.157,0.34,0.34,0.34h7.966v-0.681H26.992z M26.992,57.736v-7.721h-0.681v8.061
		c0,0.184,0.157,0.34,0.34,0.34h7.966v-0.681H26.992z M31.997,33.566c-2.696,0-4.814,3.697-4.814,8.429
		c0,4.725,2.117,8.429,4.814,8.429c2.703,0,4.814-3.704,4.814-8.429C36.81,37.263,34.7,33.566,31.997,33.566z M31.997,49.062
		c-1.661,0-3.452-2.839-3.452-7.067c0-4.228,1.791-7.067,3.452-7.067c1.668,0,3.452,2.839,3.452,7.067
		C35.448,46.223,33.665,49.062,31.997,49.062z M37.341,25.845h-7.966v0.681h7.626v7.721h0.681v-8.061
		C37.682,25.995,37.532,25.845,37.341,25.845z M37.341,25.845h-7.966v0.681h7.626v7.721h0.681v-8.061
		C37.682,25.995,37.532,25.845,37.341,25.845z M31.997,33.566c-2.696,0-4.814,3.697-4.814,8.429c0,4.725,2.117,8.429,4.814,8.429
		c2.703,0,4.814-3.704,4.814-8.429C36.81,37.263,34.7,33.566,31.997,33.566z M31.997,49.062c-1.661,0-3.452-2.839-3.452-7.067
		c0-4.228,1.791-7.067,3.452-7.067c1.668,0,3.452,2.839,3.452,7.067C35.448,46.223,33.665,49.062,31.997,49.062z M26.992,57.736
		v-7.721h-0.681v8.061c0,0.184,0.157,0.34,0.34,0.34h7.966v-0.681H26.992z M26.992,57.736v-7.721h-0.681v8.061
		c0,0.184,0.157,0.34,0.34,0.34h7.966v-0.681H26.992z M31.997,33.566c-2.696,0-4.814,3.697-4.814,8.429
		c0,4.725,2.117,8.429,4.814,8.429c2.703,0,4.814-3.704,4.814-8.429C36.81,37.263,34.7,33.566,31.997,33.566z M31.997,49.062
		c-1.661,0-3.452-2.839-3.452-7.067c0-4.228,1.791-7.067,3.452-7.067c1.668,0,3.452,2.839,3.452,7.067
		C35.448,46.223,33.665,49.062,31.997,49.062z M37.341,25.845h-7.966v0.681h7.626v7.721h0.681v-8.061
		C37.682,25.995,37.532,25.845,37.341,25.845z M37.341,25.845h-7.966v0.681h7.626v7.721h0.681v-8.061
		C37.682,25.995,37.532,25.845,37.341,25.845z M31.997,33.566c-2.696,0-4.814,3.697-4.814,8.429c0,4.725,2.117,8.429,4.814,8.429
		c2.703,0,4.814-3.704,4.814-8.429C36.81,37.263,34.7,33.566,31.997,33.566z M31.997,49.062c-1.661,0-3.452-2.839-3.452-7.067
		c0-4.228,1.791-7.067,3.452-7.067c1.668,0,3.452,2.839,3.452,7.067C35.448,46.223,33.665,49.062,31.997,49.062z M26.992,50.015
		h-0.681v8.061c0,0.184,0.157,0.34,0.34,0.34h7.966v-0.681h-7.626V50.015z M38.431,23.666H25.569c-0.749,0-1.362,0.606-1.362,1.362
		v33.934c0,0.749,0.613,1.362,1.362,1.362h12.861c0.749,0,1.362-0.613,1.362-1.362V25.028C39.792,24.272,39.18,23.666,38.431,23.666
		z M38.431,58.962H25.569V25.028h12.861V58.962z M37.001,34.247h0.681v-8.061c0-0.191-0.15-0.34-0.34-0.34h-7.966v0.681h7.626
		V34.247z M31.997,50.424c2.703,0,4.814-3.704,4.814-8.429c0-4.732-2.111-8.429-4.814-8.429c-2.696,0-4.814,3.697-4.814,8.429
		C27.183,46.72,29.3,50.424,31.997,50.424z M31.997,34.928c1.668,0,3.452,2.839,3.452,7.067c0,4.228-1.784,7.067-3.452,7.067
		c-1.661,0-3.452-2.839-3.452-7.067C28.545,37.767,30.335,34.928,31.997,34.928z M26.652,58.417h7.966v-0.681h-7.626v-7.721h-0.681
		v8.061C26.311,58.26,26.468,58.417,26.652,58.417z M26.992,57.736v-7.721h-0.681v8.061c0,0.184,0.157,0.34,0.34,0.34h7.966v-0.681
		H26.992z M31.997,33.566c-2.696,0-4.814,3.697-4.814,8.429c0,4.725,2.117,8.429,4.814,8.429c2.703,0,4.814-3.704,4.814-8.429
		C36.81,37.263,34.7,33.566,31.997,33.566z M31.997,49.062c-1.661,0-3.452-2.839-3.452-7.067c0-4.228,1.791-7.067,3.452-7.067
		c1.668,0,3.452,2.839,3.452,7.067C35.448,46.223,33.665,49.062,31.997,49.062z M37.341,25.845h-7.966v0.681h7.626v7.721h0.681
		v-8.061C37.682,25.995,37.532,25.845,37.341,25.845z M37.341,25.845h-7.966v0.681h7.626v7.721h0.681v-8.061
		C37.682,25.995,37.532,25.845,37.341,25.845z M31.997,33.566c-2.696,0-4.814,3.697-4.814,8.429c0,4.725,2.117,8.429,4.814,8.429
		c2.703,0,4.814-3.704,4.814-8.429C36.81,37.263,34.7,33.566,31.997,33.566z M31.997,49.062c-1.661,0-3.452-2.839-3.452-7.067
		c0-4.228,1.791-7.067,3.452-7.067c1.668,0,3.452,2.839,3.452,7.067C35.448,46.223,33.665,49.062,31.997,49.062z M26.992,57.736
		v-7.721h-0.681v8.061c0,0.184,0.157,0.34,0.34,0.34h7.966v-0.681H26.992z M26.992,57.736v-7.721h-0.681v8.061
		c0,0.184,0.157,0.34,0.34,0.34h7.966v-0.681H26.992z M31.997,33.566c-2.696,0-4.814,3.697-4.814,8.429
		c0,4.725,2.117,8.429,4.814,8.429c2.703,0,4.814-3.704,4.814-8.429C36.81,37.263,34.7,33.566,31.997,33.566z M31.997,49.062
		c-1.661,0-3.452-2.839-3.452-7.067c0-4.228,1.791-7.067,3.452-7.067c1.668,0,3.452,2.839,3.452,7.067
		C35.448,46.223,33.665,49.062,31.997,49.062z M37.341,25.845h-7.966v0.681h7.626v7.721h0.681v-8.061
		C37.682,25.995,37.532,25.845,37.341,25.845z M31.997,33.566c-2.696,0-4.814,3.697-4.814,8.429c0,4.725,2.117,8.429,4.814,8.429
		c2.703,0,4.814-3.704,4.814-8.429C36.81,37.263,34.7,33.566,31.997,33.566z M31.997,49.062c-1.661,0-3.452-2.839-3.452-7.067
		c0-4.228,1.791-7.067,3.452-7.067c1.668,0,3.452,2.839,3.452,7.067C35.448,46.223,33.665,49.062,31.997,49.062z M37.341,25.845
		h-7.966v0.681h7.626v7.721h0.681v-8.061C37.682,25.995,37.532,25.845,37.341,25.845z M26.992,57.736v-7.721h-0.681v8.061
		c0,0.184,0.157,0.34,0.34,0.34h7.966v-0.681H26.992z"/>
	<path style="fill:#F6EADD;" d="M25.569,25.028v33.934h12.861V25.028H25.569z M34.618,58.417h-7.966c-0.184,0-0.34-0.157-0.34-0.34
		v-8.061h0.681v7.721h7.626V58.417z M31.997,50.424c-2.696,0-4.814-3.704-4.814-8.429c0-4.732,2.117-8.429,4.814-8.429
		c2.703,0,4.814,3.697,4.814,8.429C36.81,46.72,34.7,50.424,31.997,50.424z M37.682,34.247h-0.681v-7.721h-7.626v-0.681h7.966
		c0.191,0,0.34,0.15,0.34,0.34V34.247z"/>
	<path style="fill:#EF8367;" d="M35.918,1.362v2.036h-7.837V1.362H35.918z M29.069,4.759c0.014,0.79,0.014,2.329-0.02,5.345h5.91
		V4.759H29.069z"/>
	<path style="fill:#D87189;" d="M40.759,19.125c-0.436-0.34-1.001-0.769-1.723-1.314c-2.077-1.566-3.438-5.059-3.888-6.346h-6.298
		c-0.449,1.287-1.811,4.78-3.894,6.346c-0.722,0.545-1.287,0.974-1.723,1.314c-0.667,0.517-1.048,1.307-1.048,2.151v40
		c0,0.749,0.606,1.362,1.362,1.362h16.906c0.749,0,1.362-0.613,1.362-1.362v-40C41.814,20.432,41.433,19.643,40.759,19.125z
		 M39.792,58.962c0,0.749-0.613,1.362-1.362,1.362H25.569c-0.749,0-1.362-0.613-1.362-1.362V25.028c0-0.756,0.613-1.362,1.362-1.362
		h12.861c0.749,0,1.362,0.606,1.362,1.362V58.962z"/>
</g>
<g id="Layer_1">
</g>
</svg>
