<?xml version="1.0" encoding="iso-8859-1"?>
<!-- Generator: Adobe Illustrator 23.0.4, SVG Export Plug-In . SVG Version: 6.00 Build 0)  -->
<svg version="1.1" xmlns="http://www.w3.org/2000/svg" xmlns:xlink="http://www.w3.org/1999/xlink" x="0px" y="0px"
	 viewBox="0 0 64 64" style="enable-background:new 0 0 64 64;" xml:space="preserve">
<g id="bottle-11">
	<path style="fill:#231F20;" d="M36.973,22.128L36.382,3.405h0.694c0.247,0,0.473-0.135,0.59-0.351
		c0.117-0.217,0.107-0.48-0.028-0.686l-1.345-2.063C36.17,0.115,35.916,0,35.689,0H28.31c-0.227,0-0.439,0.115-0.563,0.305
		l-1.345,2.063c-0.134,0.207-0.145,0.469-0.028,0.686c0.117,0.216,0.344,0.351,0.59,0.351h0.652l-0.592,18.749
		c-0.986,0.631-3.665,2.721-3.665,6.807v32.82c0,1.223,0.995,2.219,2.218,2.219H38.42c1.223,0,2.218-0.995,2.218-2.219v-32.82
		C40.639,24.628,38.002,22.71,36.973,22.128z M28.674,1.343h6.694l0.469,0.72h-0.106v0.008c-0.015-0.001-0.027-0.008-0.042-0.008
		H28.31h-0.106L28.674,1.343z M27.991,23.142c0.218-0.111,0.357-0.332,0.365-0.577l0.605-19.16h6.078l0.605,19.16
		c0.008,0.26,0.169,0.494,0.408,0.597c0.132,0.057,3.244,1.45,3.244,5.799v4.319H24.704v-4.319
		C24.704,24.9,27.859,23.211,27.991,23.142z M39.296,34.624v15.761H24.704V34.624H39.296z M38.42,62.657h-5.689h-7.152
		c-0.483,0-0.875-0.393-0.875-0.876V51.728h14.592v10.054C39.296,62.264,38.903,62.657,38.42,62.657z M34.494,24.424l0.26-0.619
		c0.142,0.06,3.485,1.517,3.485,6.071h-0.671C37.568,25.762,34.525,24.437,34.494,24.424z"/>
</g>
<g id="Layer_1">
</g>
</svg>
