<?xml version="1.0" encoding="iso-8859-1"?>
<!-- Generator: Adobe Illustrator 23.0.4, SVG Export Plug-In . SVG Version: 6.00 Build 0)  -->
<svg version="1.1" xmlns="http://www.w3.org/2000/svg" xmlns:xlink="http://www.w3.org/1999/xlink" x="0px" y="0px"
	 viewBox="0 0 64 64" style="enable-background:new 0 0 64 64;" xml:space="preserve">
<g id="bottle-09">
	<path style="fill:#231F20;" d="M45.326,22.907c0.275-0.389,0.42-0.846,0.42-1.321v-4.41c0-0.475-0.125-0.942-0.379-1.381
		L39.02,5.839V0H24.98v5.839l-6.364,9.985c-0.237,0.41-0.362,0.878-0.362,1.352v4.41c0,0.476,0.145,0.933,0.421,1.321l1.082,1.527
		v0.209l-1.083,1.527c-0.275,0.389-0.42,0.846-0.42,1.321v7.086c0,0.475,0.145,0.932,0.421,1.322l1.082,1.527v0.209l-1.083,1.528
		c-0.275,0.388-0.42,0.845-0.42,1.321v7.087c0,0.476,0.145,0.933,0.421,1.321l1.082,1.528v0.208l-1.083,1.528
		c-0.275,0.389-0.42,0.846-0.42,1.321v7.812c0,1.495,1.216,2.711,2.711,2.711h22.071c1.495,0,2.711-1.216,2.711-2.711v-7.812
		c0-0.475-0.145-0.932-0.42-1.321l-1.083-1.528V50.42l1.083-1.528c0.275-0.389,0.42-0.846,0.42-1.322v-7.086
		c0-0.476-0.145-0.933-0.421-1.321l-1.082-1.527v-0.209l1.083-1.528c0.275-0.389,0.42-0.846,0.42-1.321v-7.086
		c0-0.476-0.145-0.933-0.421-1.321l-1.082-1.527v-0.209L45.326,22.907z M37.497,1.524v3.673H26.503V1.524H37.497z M44.222,61.289
		c0,0.654-0.533,1.187-1.187,1.187H20.965c-0.654,0-1.187-0.533-1.187-1.187v-7.812c0-0.158,0.048-0.311,0.141-0.44l1.178-1.664
		h21.806l1.178,1.664c0.092,0.129,0.141,0.282,0.141,0.44V61.289z M44.222,47.571c0,0.159-0.048,0.311-0.14,0.441L42.78,49.85
		H21.221l-1.302-1.838c-0.092-0.129-0.141-0.282-0.141-0.44v-7.087c0-0.158,0.048-0.311,0.14-0.44l1.103-1.556h21.958l1.102,1.556
		c0.092,0.129,0.141,0.282,0.141,0.44V47.571z M44.222,34.578c0,0.158-0.048,0.311-0.14,0.441l-1.363,1.923v0.022H21.281v-0.022
		l-1.362-1.922c-0.092-0.13-0.141-0.283-0.141-0.442v-7.086c0-0.158,0.048-0.311,0.14-0.44l1.289-1.818h21.586l1.288,1.818
		c0.092,0.129,0.141,0.282,0.141,0.44V34.578z M44.222,21.586c0,0.158-0.048,0.311-0.14,0.44l-1.193,1.683H21.111l-1.192-1.683
		c-0.092-0.13-0.141-0.282-0.141-0.441v-4.41c0-0.208,0.054-0.412,0.14-0.562l6.306-9.893h11.552l6.288,9.864
		c0.103,0.179,0.158,0.384,0.158,0.591V21.586z M42.156,17.06c0.179,0.31,0.269,0.646,0.269,0.987v3.551h-0.762v-3.551
		c0-0.208-0.055-0.413-0.158-0.592l-5.198-8.154l0.643-0.409L42.156,17.06z"/>
</g>
<g id="Layer_1">
</g>
</svg>
