<?xml version="1.0" encoding="iso-8859-1"?>
<!-- Generator: Adobe Illustrator 23.0.4, SVG Export Plug-In . SVG Version: 6.00 Build 0)  -->
<svg version="1.1" xmlns="http://www.w3.org/2000/svg" xmlns:xlink="http://www.w3.org/1999/xlink" x="0px" y="0px"
	 viewBox="0 0 64 64" style="enable-background:new 0 0 64 64;" xml:space="preserve">
<g id="bottle-08">
	<path style="fill:#231F20;" d="M37.948,11.975v-1.753h0.525c0.38,0,0.689-0.308,0.689-0.688v-5.5c0-0.38-0.308-0.688-0.689-0.688
		H36.9V0.688C36.9,0.308,36.592,0,36.212,0h-8.424C27.408,0,27.1,0.308,27.1,0.688v2.658h-1.572c-0.38,0-0.688,0.308-0.688,0.688
		v5.5c0,0.38,0.308,0.688,0.688,0.688h0.525v1.753c-1.668,0.861-7.776,4.477-7.776,11.216v37.262c0,1.955,1.591,3.546,3.546,3.546
		h20.356c1.955,0,3.546-1.591,3.546-3.546V23.192C45.724,16.453,39.616,12.837,37.948,11.975z M28.476,1.376h7.048v1.97h-7.048
		V1.376z M26.216,4.722h11.568v4.123H26.216V4.722z M44.347,60.454c0,1.196-0.973,2.169-2.169,2.169H21.822
		c-1.196,0-2.169-0.973-2.169-2.169V23.192c0-6.741,7.298-10.127,7.372-10.161c0.246-0.112,0.405-0.357,0.405-0.627v-2.182h9.142
		v2.182c0,0.27,0.159,0.515,0.405,0.627c0.074,0.034,7.372,3.42,7.372,10.161V60.454z M43.061,23.991V58.36h-0.688V23.991
		c0-6.023-6.476-9.012-6.541-9.042l0.283-0.628C36.184,14.353,43.061,17.529,43.061,23.991z"/>
</g>
<g id="Layer_1">
</g>
</svg>
