<?xml version="1.0" encoding="iso-8859-1"?>
<!-- Generator: Adobe Illustrator 23.0.4, SVG Export Plug-In . SVG Version: 6.00 Build 0)  -->
<svg version="1.1" xmlns="http://www.w3.org/2000/svg" xmlns:xlink="http://www.w3.org/1999/xlink" x="0px" y="0px"
	 viewBox="0 0 64 64" style="enable-background:new 0 0 64 64;" xml:space="preserve">
<g id="bottle-01">
	<path style="fill:#231F20;" d="M36.211,19.675L36.21,1.833C36.21,0.822,35.387,0,34.377,0h-4.754c-1.011,0-1.833,0.822-1.833,1.833
		l-0.001,17.842c-1.675,0.528-6.48,2.663-6.48,9.773v32.095c0,1.355,1.102,2.457,2.457,2.457h16.468
		c1.355,0,2.457-1.102,2.457-2.457V29.448C42.691,22.338,37.886,20.203,36.211,19.675z M29.623,1.376h4.754
		c0.252,0,0.456,0.205,0.456,0.456l0,7.592h-5.668l0-7.592C29.166,1.581,29.371,1.376,29.623,1.376z M41.315,61.543
		c0,0.596-0.485,1.08-1.081,1.08H23.766c-0.596,0-1.08-0.485-1.08-1.08V29.448c0-7.389,5.673-8.525,5.912-8.569
		c0.328-0.058,0.568-0.344,0.568-0.677l0.001-9.401h5.668l0.001,9.401c0,0.333,0.239,0.619,0.568,0.677
		c0.059,0.011,5.913,1.14,5.913,8.569V61.543z"/>
	<g>
		<rect x="22.086" y="50.55" style="fill:#231F20;" width="19.663" height="1.376"/>
	</g>
	<g>
		<rect x="22.086" y="36.512" style="fill:#231F20;" width="19.663" height="1.376"/>
	</g>
	<g>
		<path style="fill:#231F20;" d="M40.103,32.373h-0.688v-2.288c0-6.475-5.141-7.467-5.193-7.476l0.121-0.677
			c0.057,0.01,5.76,1.109,5.76,8.154V32.373z"/>
	</g>
</g>
<g id="Layer_1">
</g>
</svg>
