<?xml version="1.0" encoding="iso-8859-1"?>
<!-- Generator: Adobe Illustrator 23.0.4, SVG Export Plug-In . SVG Version: 6.00 Build 0)  -->
<svg version="1.1" xmlns="http://www.w3.org/2000/svg" xmlns:xlink="http://www.w3.org/1999/xlink" x="0px" y="0px"
	 viewBox="0 0 64 64" style="enable-background:new 0 0 64 64;" xml:space="preserve">
<g id="bottle-13">
	<path style="fill:#231F20;" d="M36.761,4.277h0.366c0.252,0,0.486-0.129,0.62-0.343c0.134-0.213,0.149-0.48,0.039-0.706
		l-1.358-2.814C36.305,0.161,36.006,0,35.726,0h-7.451c-0.281,0-0.537,0.161-0.659,0.414l-1.358,2.814
		c-0.11,0.226-0.095,0.494,0.039,0.706c0.134,0.214,0.368,0.343,0.62,0.343h0.328c-1.507,4.338-7.411,21.595-7.411,25.752v31.678
		c0,1.265,1.029,2.293,2.293,2.293h19.746c1.265,0,2.293-1.028,2.293-2.293V30.029C44.166,25.578,38.278,8.582,36.761,4.277z
		 M28.734,1.463h6.575l0.652,1.351h-0.193v0.007c-0.015-0.001-0.028-0.007-0.042-0.007h-7.451h-0.193L28.734,1.463z M28.794,4.277
		h6.415c1.136,3.215,7.495,21.405,7.495,25.752v2.845H21.296v-2.845C21.296,25.987,27.661,7.529,28.794,4.277z M42.704,34.337
		v15.808H21.296V34.337H42.704z M41.873,62.537h-9.135H22.127c-0.458,0-0.831-0.373-0.831-0.831V51.608h21.407v10.098
		C42.704,62.164,42.331,62.537,41.873,62.537z M40.875,30.029c0-2.91-2.749-11.777-5.056-18.702l0.694-0.231
		c2.323,6.977,5.093,15.925,5.093,18.934H40.875z"/>
</g>
<g id="Layer_1">
</g>
</svg>
