<?xml version="1.0" encoding="iso-8859-1"?>
<!-- Generator: Adobe Illustrator 23.0.4, SVG Export Plug-In . SVG Version: 6.00 Build 0)  -->
<svg version="1.1" xmlns="http://www.w3.org/2000/svg" xmlns:xlink="http://www.w3.org/1999/xlink" x="0px" y="0px"
	 viewBox="0 0 64 64" style="enable-background:new 0 0 64 64;" xml:space="preserve">
<g id="bottle-15">
	<path style="fill:#231F20;" d="M41.283,17.175l-2.085-3.343v-3.687c0-0.743-0.605-1.348-1.348-1.348h-0.525V8.078
		c0-1.089-0.651-2.023-1.582-2.448V3.743C35.742,1.679,34.063,0,32,0s-3.742,1.679-3.742,3.743V5.63
		c-0.931,0.425-1.582,1.36-1.582,2.448v0.719H26.15c-0.743,0-1.348,0.605-1.348,1.348v3.687l-2.085,3.343
		c-0.4,0.642-0.612,1.382-0.612,2.14v42.303c0,1.314,1.068,2.382,2.381,2.382h15.027c1.313,0,2.381-1.068,2.381-2.382V19.315
		C41.895,18.559,41.684,17.819,41.283,17.175z M32,1.348c1.32,0,2.395,1.074,2.395,2.395v1.64h-4.788v-1.64
		C29.606,2.422,30.68,1.348,32,1.348z M28.023,8.078c0-0.743,0.605-1.348,1.348-1.348h5.257c0.743,0,1.348,0.605,1.348,1.348v0.719
		h-7.953V8.078z M37.85,10.145v3.205H26.15v-3.205H37.85z M40.547,61.618c0,0.57-0.463,1.034-1.033,1.034H24.486
		c-0.57,0-1.033-0.464-1.033-1.034V19.315c0-0.505,0.141-0.998,0.408-1.426l1.989-3.19h12.3l1.989,3.189
		c0.267,0.429,0.408,0.923,0.408,1.427V61.618z M38.862,23.359h0.674v35.563h-0.674V23.359z"/>
</g>
<g id="Layer_1">
</g>
</svg>
