<?xml version="1.0" encoding="iso-8859-1"?>
<!-- Generator: Adobe Illustrator 23.0.4, SVG Export Plug-In . SVG Version: 6.00 Build 0)  -->
<svg version="1.1" xmlns="http://www.w3.org/2000/svg" xmlns:xlink="http://www.w3.org/1999/xlink" x="0px" y="0px"
	 viewBox="0 0 64 64" style="enable-background:new 0 0 64 64;" xml:space="preserve">
<g id="bottle-06">
	<path style="fill:#231F20;" d="M48.568,23.842c-1.374-1.077-3.047-2.397-4.699-3.716c-2.615-2.09-3.095-5.26-3.173-6.696
		c1.266-0.135,2.259-1.196,2.259-2.497V8.186c0-1.392-1.132-2.524-2.524-2.524H39.82V3.365C39.82,1.51,38.311,0,36.455,0h-8.911
		c-1.855,0-3.365,1.51-3.365,3.365v2.297h-0.61c-1.392,0-2.524,1.132-2.524,2.524v2.747c0,1.302,0.994,2.364,2.261,2.497
		c-0.073,1.433-0.546,4.594-3.176,6.695c-1.652,1.319-3.325,2.639-4.699,3.716c-2.136,1.675-3.21,4.756-2.735,7.848l4.676,30.45
		C17.539,63.217,18.348,64,19.296,64h25.407c0.949,0,1.758-0.783,1.923-1.862l4.676-30.449
		C51.777,28.597,50.704,25.516,48.568,23.842z M25.862,3.365c0-0.928,0.755-1.682,1.682-1.682h8.911
		c0.928,0,1.682,0.755,1.682,1.682v2.297H25.862V3.365z M22.728,10.933V8.186c0-0.464,0.377-0.841,0.841-0.841h16.862
		c0.464,0,0.841,0.377,0.841,0.841v2.747c0,0.464-0.377,0.841-0.841,0.841H23.569C23.105,11.774,22.728,11.397,22.728,10.933z
		 M49.64,31.434l-4.676,30.45c-0.046,0.301-0.207,0.434-0.26,0.434H19.296c-0.053,0-0.214-0.134-0.26-0.434l-4.676-30.45
		c-0.378-2.463,0.47-4.982,2.11-6.268c1.376-1.08,3.054-2.402,4.71-3.725c3.192-2.55,3.736-6.284,3.81-7.983h14.018
		c0.074,1.7,0.618,5.433,3.81,7.983c1.656,1.323,3.333,2.645,4.71,3.726C49.17,26.452,50.018,28.971,49.64,31.434z M32,34.014
		c-7.2,0-13.059,4.345-13.059,9.685S24.8,53.384,32,53.384s13.059-4.345,13.059-9.685S39.2,34.014,32,34.014z M32,51.701
		c-6.273,0-11.376-3.59-11.376-8.003S25.727,35.696,32,35.696s11.376,3.59,11.376,8.003S38.273,51.701,32,51.701z M24.464,43.278
		h15.796v0.841H24.464V43.278z M38.724,40.754H26.001v-0.841h12.724V40.754z M26.001,46.643h12.724v0.841H26.001V46.643z"/>
</g>
<g id="Layer_1">
</g>
</svg>
