<?xml version="1.0" encoding="iso-8859-1"?>
<!-- Generator: Adobe Illustrator 23.0.4, SVG Export Plug-In . SVG Version: 6.00 Build 0)  -->
<svg version="1.1" xmlns="http://www.w3.org/2000/svg" xmlns:xlink="http://www.w3.org/1999/xlink" x="0px" y="0px"
	 viewBox="0 0 64 64" style="enable-background:new 0 0 64 64;" xml:space="preserve">
<g id="bottle-04">
	<path style="fill:#231F20;" d="M41.597,18.051c-0.439-0.342-1.009-0.779-1.739-1.328c-1.998-1.504-3.333-5.417-3.537-6.045v-5.92
		h0.279c0.376,0,0.681-0.305,0.681-0.681V0.681C37.282,0.305,36.977,0,36.601,0h-9.201c-0.376,0-0.681,0.305-0.681,0.681v3.397
		c0,0.376,0.305,0.681,0.681,0.681h0.312c0.017,1.214-0.006,4.024-0.031,5.916c-0.201,0.617-1.537,4.541-3.539,6.049
		c-0.729,0.549-1.299,0.986-1.739,1.328c-1.004,0.781-1.58,1.957-1.58,3.227v39.999c0,1.502,1.221,2.723,2.723,2.723h16.908
		c1.502,0,2.723-1.222,2.723-2.723V21.278C43.177,20.008,42.601,18.832,41.597,18.051z M28.08,1.362h7.84v2.035h-7.84V1.362z
		 M34.96,4.758v5.346h-5.91c0.036-3.017,0.036-4.554,0.02-5.346H34.96z M41.815,61.277c0,0.751-0.611,1.362-1.362,1.362h-8.37
		h-8.538c-0.751,0-1.362-0.611-1.362-1.362V21.278c0-0.846,0.384-1.631,1.054-2.152c0.436-0.338,1-0.771,1.722-1.315
		c2.078-1.564,3.443-5.058,3.891-6.344h6.298c0.448,1.287,1.813,4.78,3.89,6.344c0.723,0.544,1.287,0.977,1.722,1.315
		c0.67,0.521,1.054,1.306,1.054,2.152V61.277z M38.429,23.665H25.571c-0.751,0-1.362,0.611-1.362,1.362V58.96
		c0,0.751,0.611,1.362,1.362,1.362h12.858c0.751,0,1.362-0.611,1.362-1.362V25.027C39.791,24.276,39.18,23.665,38.429,23.665z
		 M25.571,58.96V25.027h12.858L38.43,58.96H25.571z M32,33.564c-2.699,0-4.813,3.702-4.813,8.429s2.114,8.429,4.813,8.429
		c2.699,0,4.813-3.702,4.813-8.429S34.699,33.564,32,33.564z M32,49.061c-1.667,0-3.451-2.84-3.451-7.067s1.785-7.067,3.451-7.067
		c1.667,0,3.451,2.84,3.451,7.067S33.667,49.061,32,49.061z M37.685,26.184v8.062h-0.681v-7.721h-7.626v-0.681h7.966
		C37.532,25.843,37.685,25.995,37.685,26.184z M26.995,57.734h7.626v0.681h-7.966c-0.188,0-0.34-0.152-0.34-0.34v-8.062h0.681
		V57.734z"/>
</g>
<g id="Layer_1">
</g>
</svg>
