<?xml version="1.0" encoding="iso-8859-1"?>
<!-- Generator: Adobe Illustrator 23.0.4, SVG Export Plug-In . SVG Version: 6.00 Build 0)  -->
<svg version="1.1" xmlns="http://www.w3.org/2000/svg" xmlns:xlink="http://www.w3.org/1999/xlink" x="0px" y="0px"
	 viewBox="0 0 64 64" style="enable-background:new 0 0 64 64;" xml:space="preserve">
<g id="bottle-10">
	<path style="fill:#231F20;" d="M35.826,9.608V4.946h0.321c0.38,0,0.688-0.308,0.688-0.688v-3.57c0-0.38-0.308-0.688-0.688-0.688
		h-8.296c-0.38,0-0.688,0.308-0.688,0.688v3.57c0,0.38,0.308,0.688,0.688,0.688h0.357c0.009,0.645,0.005,1.943-0.03,4.468
		l-0.003,0.187c-4.507,8.563-7.798,29.367-8.013,50.729c-0.01,0.978,0.364,1.9,1.051,2.595C21.901,63.618,22.816,64,23.79,64h16.42
		c0.974,0,1.889-0.382,2.575-1.075c0.687-0.695,1.061-1.616,1.051-2.594C43.621,38.974,40.333,18.175,35.826,9.608z M28.54,1.376
		h6.919V3.57H28.54V1.376z M41.807,61.957c-0.425,0.43-0.993,0.667-1.597,0.667H23.79c-0.604,0-1.171-0.237-1.597-0.667
		c-0.427-0.432-0.659-1.005-0.653-1.613c0.25-24.842,4.285-43.458,7.929-50.241c0.052-0.098,0.081-0.207,0.082-0.317l0.005-0.353
		c0.035-2.48,0.04-3.779,0.029-4.487h4.865v4.833c0,0.114,0.028,0.225,0.082,0.326c3.643,6.785,7.678,25.4,7.928,50.24
		C42.466,60.952,42.234,61.525,41.807,61.957z M40.837,59.827c-0.084-10.089-0.815-17.791-1.358-22.707l0.684-0.075
		c0.544,4.93,1.278,12.656,1.362,22.776c0.003,0.463-0.174,0.899-0.501,1.228c-0.326,0.329-0.759,0.509-1.22,0.509v-0.688
		c0.276,0,0.536-0.109,0.731-0.306C40.732,60.368,40.839,60.106,40.837,59.827z"/>
</g>
<g id="Layer_1">
</g>
</svg>
