<?xml version="1.0" encoding="iso-8859-1"?>
<!-- Generator: Adobe Illustrator 23.0.4, SVG Export Plug-In . SVG Version: 6.00 Build 0)  -->
<svg version="1.1" xmlns="http://www.w3.org/2000/svg" xmlns:xlink="http://www.w3.org/1999/xlink" x="0px" y="0px"
	 viewBox="0 0 64 64" style="enable-background:new 0 0 64 64;" xml:space="preserve">
<g id="bottle-14">
	<path style="fill:#231F20;" d="M40.751,27.416c-1.032-0.53-1.789-1.37-2.132-2.366c-1.788-5.192-1.649-13.268-1.546-15.935h0.532
		c0.402,0,0.727-0.325,0.727-0.727V3.625c0-0.402-0.325-0.727-0.727-0.727h-1.23v-2.17C36.375,0.325,36.05,0,35.648,0h-7.295
		c-0.402,0-0.727,0.325-0.727,0.727v2.17h-1.23c-0.402,0-0.727,0.325-0.727,0.727v4.763c0,0.402,0.325,0.727,0.727,0.727h0.249
		c0.104,2.696,0.243,10.916-1.605,16.098c-0.354,0.991-1.114,1.841-2.139,2.393c-7.087,3.817-11.489,11.542-11.489,20.16
		c0,5.484,1.831,10.766,5.156,14.873c0.7,0.865,1.749,1.361,2.876,1.361h25.114c1.128,0,2.176-0.496,2.876-1.361
		c3.325-4.107,5.156-9.389,5.156-14.873C52.589,39.094,47.942,31.107,40.751,27.416z M29.08,1.455h5.841v1.443H29.08V1.455z
		 M27.122,4.352h9.756v3.308h-9.756V4.352z M46.303,61.724c-0.423,0.521-1.059,0.821-1.746,0.821H19.443
		c-0.687,0-1.323-0.3-1.746-0.821c-3.116-3.849-4.832-8.807-4.832-13.958c0-8.082,4.109-15.316,10.724-18.879
		c1.343-0.724,2.344-1.855,2.818-3.185c1.945-5.449,1.809-13.743,1.695-16.587h7.513c-0.113,2.811-0.248,10.957,1.629,16.408
		c0.466,1.354,1.475,2.485,2.842,3.187c6.712,3.444,11.048,10.924,11.048,19.056C51.135,52.918,49.419,57.875,46.303,61.724z
		 M18.771,55.317h26.46V39.681h-26.46V55.317z M20.225,41.136h23.55v12.727h-23.55V41.136z M50.063,47.681l-0.727-0.018
		c0.173-6.94-3.373-13.418-9.033-16.503l0.348-0.639C46.548,33.735,50.242,40.47,50.063,47.681z"/>
</g>
<g id="Layer_1">
</g>
</svg>
