<?xml version="1.0" encoding="iso-8859-1"?>
<!-- Generator: Adobe Illustrator 23.0.4, SVG Export Plug-In . SVG Version: 6.00 Build 0)  -->
<svg version="1.1" xmlns="http://www.w3.org/2000/svg" xmlns:xlink="http://www.w3.org/1999/xlink" x="0px" y="0px"
	 viewBox="0 0 64 64" style="enable-background:new 0 0 64 64;" xml:space="preserve">
<g id="bottle-12">
	<path style="fill:#231F20;" d="M41.372,31.364c0-0.94-0.35-1.797-0.688-2.626c-0.278-0.681-0.54-1.324-0.54-1.882
		c0-0.735,0.311-1.498,0.613-2.235c0.302-0.741,0.615-1.506,0.615-2.27c0-10.69-4.993-14.853-5.838-15.481l-0.422-0.605V5.382h0.113
		c0.38,0,0.688-0.308,0.688-0.688V0.688c0-0.38-0.308-0.688-0.688-0.688H28.96c-0.38,0-0.688,0.308-0.688,0.688v4.005
		c0,0.355,0.272,0.636,0.616,0.674v1.05l-0.385,0.426c-0.721,0.524-5.875,4.647-5.875,15.508c0,0.764,0.313,1.53,0.615,2.27
		c0.301,0.737,0.613,1.5,0.613,2.235c0,0.558-0.262,1.201-0.54,1.882c-0.338,0.829-0.688,1.686-0.688,2.626
		c0,0.861,0.333,1.678,0.656,2.468c0.294,0.721,0.572,1.403,0.572,2.039c0,0.616-0.274,1.288-0.564,1.999
		c-0.327,0.8-0.664,1.628-0.664,2.509c0,0.911,0.344,1.754,0.676,2.569c0.284,0.695,0.551,1.351,0.551,1.938
		c0,0.677-0.286,1.379-0.589,2.121c-0.314,0.769-0.639,1.565-0.639,2.384c0,1.028,0.384,1.968,0.724,2.797
		c0.259,0.634,0.504,1.233,0.504,1.705c0,1.258-0.259,1.676-0.558,2.159c-0.314,0.507-0.67,1.082-0.67,2.346v3.07
		c0,1.395,1.135,2.53,2.53,2.53h13.684c1.395,0,2.53-1.135,2.53-2.53V58.4c0-1.264-0.356-1.839-0.67-2.346
		c-0.299-0.483-0.558-0.901-0.558-2.159c0-0.472,0.245-1.071,0.504-1.705c0.339-0.829,0.724-1.769,0.724-2.797
		c0-0.819-0.325-1.615-0.639-2.384c-0.303-0.742-0.589-1.444-0.589-2.121c0-0.586,0.268-1.243,0.551-1.938
		c0.333-0.815,0.676-1.658,0.676-2.569c0-0.882-0.337-1.709-0.664-2.509c-0.29-0.712-0.564-1.383-0.564-1.999
		c0-0.636,0.278-1.318,0.572-2.039C41.039,33.042,41.372,32.225,41.372,31.364z M29.648,1.376h4.888v2.629h-0.113h-4.775V1.376z
		 M39.483,24.101c-0.257,0.629-0.537,1.324-0.655,2.067h-3.233v1.376h3.247c0.113,0.585,0.341,1.156,0.568,1.713
		c0.301,0.739,0.586,1.437,0.586,2.106c0,0.591-0.269,1.25-0.554,1.948c-0.246,0.603-0.497,1.222-0.61,1.871h-3.237v1.376h3.239
		c0.113,0.632,0.358,1.239,0.6,1.831c0.289,0.709,0.562,1.378,0.562,1.99c0,0.641-0.279,1.325-0.574,2.049
		c-0.234,0.574-0.471,1.162-0.584,1.769h-3.243v1.376h3.234c0.117,0.695,0.385,1.354,0.63,1.953
		c0.276,0.676,0.537,1.315,0.537,1.864c0,0.757-0.316,1.529-0.621,2.276c-0.215,0.525-0.415,1.031-0.523,1.538h-3.257v1.376h3.204
		c0.1,1.162,0.445,1.73,0.733,2.196c0.269,0.435,0.464,0.749,0.464,1.622v3.07c0,0.636-0.517,1.154-1.154,1.154H25.158
		c-0.636,0-1.154-0.517-1.154-1.154V58.4c0-0.873,0.195-1.187,0.464-1.622c0.288-0.465,0.633-1.034,0.733-2.196h3.292v-1.376h-3.345
		c-0.108-0.507-0.308-1.012-0.523-1.538c-0.305-0.747-0.621-1.519-0.621-2.276c0-0.55,0.261-1.188,0.537-1.864
		c0.244-0.599,0.512-1.258,0.63-1.953h3.322v-1.376h-3.331c-0.113-0.608-0.35-1.196-0.584-1.769
		c-0.295-0.724-0.574-1.408-0.574-2.049c0-0.612,0.273-1.281,0.562-1.99c0.241-0.592,0.486-1.198,0.6-1.831h3.327v-1.376h-3.324
		c-0.114-0.649-0.365-1.268-0.61-1.871c-0.285-0.698-0.554-1.358-0.554-1.948c0-0.669,0.285-1.368,0.586-2.106
		c0.227-0.557,0.456-1.128,0.568-1.713h3.334v-1.376h-3.321c-0.118-0.743-0.398-1.438-0.655-2.067
		c-0.264-0.646-0.513-1.256-0.513-1.75c0-10.642,5.291-14.384,5.342-14.419c0.047-0.032,0.089-0.068,0.127-0.11l0.614-0.679
		c0.115-0.127,0.178-0.291,0.178-0.462v-1.3h3.471v1.101c0,0.141,0.043,0.278,0.124,0.394l0.614,0.879
		c0.049,0.07,0.11,0.13,0.18,0.177c0.053,0.036,5.342,3.714,5.342,14.419C39.996,22.845,39.746,23.456,39.483,24.101z
		 M38.797,21.931h-0.688c0-9.326-4.668-12.603-4.715-12.636l0.384-0.571C33.982,8.862,38.797,12.21,38.797,21.931z"/>
</g>
<g id="Layer_1">
</g>
</svg>
