<?xml version="1.0" encoding="iso-8859-1"?>
<!-- Generator: Adobe Illustrator 23.0.4, SVG Export Plug-In . SVG Version: 6.00 Build 0)  -->
<svg version="1.1" xmlns="http://www.w3.org/2000/svg" xmlns:xlink="http://www.w3.org/1999/xlink" x="0px" y="0px"
	 viewBox="0 0 64 64" style="enable-background:new 0 0 64 64;" xml:space="preserve">
<g id="bottle-05">
	<path style="fill:#231F20;" d="M42.135,31.73l-3.169-6.484c-1.417-2.901-2.166-6.139-2.166-9.366V4.8
		c0.393,0,0.711-0.318,0.711-0.711V0.711C37.511,0.318,37.193,0,36.8,0h-9.6c-0.393,0-0.711,0.318-0.711,0.711v3.378
		c0,0.33,0.229,0.595,0.533,0.675v11.223c0,3.16-0.719,6.338-2.08,9.189l-3.167,6.636c-1.452,3.042-2.219,6.431-2.219,9.801v19.542
		c0,1.568,1.276,2.844,2.844,2.844h19.2c1.569,0,2.844-1.276,2.844-2.844V41.72C44.444,38.278,43.646,34.823,42.135,31.73z
		 M27.911,1.422h8.178v1.956h-8.178V1.422z M23.058,32.424l3.167-6.636c1.451-3.041,2.219-6.43,2.219-9.801V4.8h6.933v11.08
		c0,3.442,0.799,6.897,2.31,9.99l3.169,6.484c1.417,2.9,2.165,6.139,2.165,9.366v5.028h-2.497c-0.363-4.388-4.044-7.85-8.525-7.85
		c-4.48,0-8.161,3.462-8.524,7.85h-2.498v-5.135C20.978,38.454,21.697,35.276,23.058,32.424z M39.139,47.46
		c0,3.936-3.203,7.139-7.139,7.139s-7.138-3.202-7.138-7.139c0-3.936,3.202-7.139,7.138-7.139S39.139,43.523,39.139,47.46z
		 M41.6,62.578H22.4c-0.784,0-1.422-0.638-1.422-1.422V48.171h2.498c0.363,4.388,4.044,7.85,8.524,7.85
		c4.481,0,8.162-3.461,8.525-7.85h2.497v12.985C43.022,61.94,42.384,62.578,41.6,62.578z M37.338,44.732l-0.633,0.324
		c-0.91-1.779-2.713-2.884-4.705-2.884c-2.006,0-3.815,1.117-4.721,2.916l-0.635-0.319c1.027-2.041,3.079-3.308,5.356-3.308
		C34.259,41.462,36.304,42.715,37.338,44.732z M36.704,49.863l0.633,0.324c-1.033,2.017-3.078,3.27-5.338,3.27
		c-2.276,0-4.328-1.267-5.356-3.308l0.635-0.319c0.906,1.799,2.715,2.916,4.721,2.916C33.99,52.746,35.794,51.641,36.704,49.863z"/>
</g>
<g id="Layer_1">
</g>
</svg>
