<?xml version="1.0" encoding="iso-8859-1"?>
<!-- Generator: Adobe Illustrator 23.0.4, SVG Export Plug-In . SVG Version: 6.00 Build 0)  -->
<svg version="1.1" xmlns="http://www.w3.org/2000/svg" xmlns:xlink="http://www.w3.org/1999/xlink" x="0px" y="0px"
	 viewBox="0 0 64 64" style="enable-background:new 0 0 64 64;" xml:space="preserve">
<g id="bottle-03">
	<path style="fill:#231F20;" d="M38.92,10.822c-0.569-0.221-0.938-0.759-0.938-1.371V5.214h0.554c0.38,0,0.688-0.308,0.688-0.688
		V0.688c0-0.38-0.308-0.688-0.688-0.688H25.463c-0.38,0-0.688,0.308-0.688,0.688v3.837c0,0.38,0.308,0.688,0.688,0.688h0.555v4.238
		c0,0.611-0.368,1.149-0.938,1.371c-3.734,1.451-6.146,4.977-6.146,8.983v43.507c0,0.38,0.308,0.688,0.688,0.688h24.756
		c0.38,0,0.688-0.308,0.688-0.688V19.805C45.066,15.799,42.653,12.273,38.92,10.822z M26.151,1.376h11.698v2.461H26.151V1.376z
		 M43.69,62.624H20.31V19.805c0-3.434,2.068-6.456,5.268-7.7c1.103-0.429,1.815-1.47,1.815-2.654V5.214h9.213v4.238
		c0,1.183,0.712,2.225,1.815,2.654c3.2,1.244,5.268,4.266,5.268,7.7V62.624z M42.132,20.522v39.816h-0.688V20.522
		c0-3.026-1.822-5.689-4.642-6.785l0.249-0.641C40.137,14.295,42.132,17.21,42.132,20.522z"/>
</g>
<g id="Layer_1">
</g>
</svg>
