<?xml version="1.0" encoding="iso-8859-1"?>
<!-- Generator: Adobe Illustrator 23.0.4, SVG Export Plug-In . SVG Version: 6.00 Build 0)  -->
<svg version="1.1" xmlns="http://www.w3.org/2000/svg" xmlns:xlink="http://www.w3.org/1999/xlink" x="0px" y="0px"
	 viewBox="0 0 64 64" style="enable-background:new 0 0 64 64;" xml:space="preserve">
<g id="bottle-07">
	<path style="fill:#231F20;" d="M41.909,30.029c-0.232-0.213-0.462-0.42-0.687-0.624c-2.687-2.43-4.629-4.185-4.629-8.888V7.927
		c0.986-0.025,1.782-0.831,1.782-1.824V5.057c0-0.994-0.798-1.802-1.787-1.824V2.048C36.589,0.919,35.67,0,34.54,0H29.46
		c-1.13,0-2.049,0.919-2.049,2.048v1.184c-0.989,0.023-1.787,0.83-1.787,1.824v1.047c0,0.992,0.796,1.799,1.782,1.824v12.589
		c0,4.703-1.941,6.458-4.628,8.888c-0.226,0.204-0.455,0.411-0.687,0.624c-3.165,2.901-5.823,6.961-3.862,16.939
		c1.281,6.517,2.763,11.731,3.532,14.258C22.265,62.885,23.771,64,25.508,64h12.984c1.737,0,3.242-1.115,3.747-2.773
		c0.94-3.089,2.315-8.071,3.532-14.258C47.733,36.991,45.074,32.931,41.909,30.029z M29.46,1.219h5.081
		c0.457,0,0.83,0.372,0.83,0.829v1.18h-6.74v-1.18C28.63,1.591,29.002,1.219,29.46,1.219z M26.843,6.104V5.057
		c0-0.336,0.273-0.609,0.609-0.609h9.095c0.336,0,0.609,0.273,0.609,0.609v1.047c0,0.336-0.273,0.609-0.609,0.609h-9.095
		C27.116,6.713,26.843,6.44,26.843,6.104z M44.575,46.733c-1.27,6.461-2.739,11.631-3.502,14.139
		c-0.348,1.142-1.385,1.909-2.581,1.909H25.508c-1.197,0-2.234-0.767-2.581-1.909c-0.762-2.506-2.231-7.675-3.502-14.139
		c-1.016-5.168-1.668-11.078,3.489-15.806c0.23-0.211,0.458-0.417,0.681-0.619c2.699-2.44,5.03-4.548,5.03-9.792V7.932h6.75v12.585
		c0,5.244,2.331,7.352,5.03,9.792c0.223,0.202,0.451,0.407,0.681,0.618C43.79,33.407,46.513,36.877,44.575,46.733z M43.384,46.768
		l-0.598-0.118c1.691-8.602-0.552-12.058-3.228-14.511l0.412-0.449C42.777,34.263,45.133,37.871,43.384,46.768z"/>
</g>
<g id="Layer_1">
</g>
</svg>
