<?xml version="1.0" encoding="iso-8859-1"?>
<!-- Generator: Adobe Illustrator 23.0.4, SVG Export Plug-In . SVG Version: 6.00 Build 0)  -->
<svg version="1.1" xmlns="http://www.w3.org/2000/svg" xmlns:xlink="http://www.w3.org/1999/xlink" x="0px" y="0px"
	 viewBox="0 0 64 64" style="enable-background:new 0 0 64 64;" xml:space="preserve">
<g id="bottle-09">
	<path style="fill:#289BD6;" d="M42.156,17.059l-5.204-8.168l-0.64,0.404l5.196,8.152c0.099,0.183,0.16,0.389,0.16,0.594v3.55h0.762
		v-3.55C42.43,17.707,42.339,17.364,42.156,17.059z M42.156,17.059l-5.204-8.168l-0.64,0.404l5.196,8.152
		c0.099,0.183,0.16,0.389,0.16,0.594v3.55h0.762v-3.55C42.43,17.707,42.339,17.364,42.156,17.059z M42.156,17.059l-5.204-8.168
		l-0.64,0.404l5.196,8.152c0.099,0.183,0.16,0.389,0.16,0.594v3.55h0.762v-3.55C42.43,17.707,42.339,17.364,42.156,17.059z
		 M42.156,17.059l-5.204-8.168l-0.64,0.404l5.196,8.152c0.099,0.183,0.16,0.389,0.16,0.594v3.55h0.762v-3.55
		C42.43,17.707,42.339,17.364,42.156,17.059z M45.326,22.903c0.274-0.389,0.419-0.846,0.419-1.318v-4.411
		c0-0.472-0.122-0.945-0.373-1.379l-6.347-9.958V0H24.983v5.836l-6.362,9.981c-0.236,0.411-0.366,0.884-0.366,1.356v4.411
		c0,0.472,0.145,0.93,0.419,1.318l1.082,1.531v0.206l-1.082,1.524c-0.274,0.396-0.419,0.846-0.419,1.326v7.086
		c0,0.472,0.145,0.93,0.419,1.318l1.082,1.531v0.206l-1.082,1.531c-0.274,0.389-0.419,0.846-0.419,1.318v7.086
		c0,0.48,0.145,0.937,0.419,1.326l1.082,1.524v0.213l-1.082,1.524c-0.274,0.389-0.419,0.846-0.419,1.326v7.81
		c0,1.493,1.219,2.712,2.712,2.712H43.04c1.493,0,2.705-1.219,2.705-2.712v-7.81c0-0.48-0.145-0.937-0.419-1.326l-1.082-1.524
		v-0.213l1.082-1.524c0.274-0.389,0.419-0.846,0.419-1.326V40.48c0-0.472-0.145-0.93-0.419-1.318l-1.082-1.531v-0.206l1.082-1.531
		c0.274-0.389,0.419-0.846,0.419-1.318v-7.086c0-0.48-0.145-0.93-0.419-1.326l-1.082-1.524v-0.206L45.326,22.903z M26.507,1.524
		h10.994v3.672H26.507V1.524z M44.221,61.288c0,0.655-0.526,1.189-1.181,1.189H20.968c-0.655,0-1.189-0.533-1.189-1.189v-7.81
		c0-0.16,0.053-0.312,0.145-0.442l1.173-1.669h21.806l1.181,1.669c0.091,0.13,0.137,0.282,0.137,0.442V61.288z M44.221,47.566
		c0,0.16-0.046,0.312-0.137,0.442l-1.303,1.836H21.227l-1.303-1.836c-0.091-0.13-0.145-0.282-0.145-0.442V40.48
		c0-0.16,0.053-0.312,0.145-0.442l1.097-1.554h21.958l1.105,1.554c0.091,0.13,0.137,0.282,0.137,0.442V47.566z M44.221,34.575
		c0,0.16-0.046,0.312-0.137,0.442l-1.364,1.92v0.023H21.28v-0.023l-1.356-1.92c-0.091-0.13-0.145-0.282-0.145-0.442v-7.086
		c0-0.16,0.053-0.312,0.145-0.442l1.288-1.821h21.585l1.288,1.821c0.091,0.13,0.137,0.282,0.137,0.442V34.575z M44.221,21.585
		c0,0.16-0.046,0.312-0.137,0.442l-1.189,1.676H21.112l-1.189-1.676c-0.091-0.13-0.145-0.282-0.145-0.442v-4.411
		c0-0.206,0.053-0.411,0.145-0.564l6.301-9.89h11.55l6.293,9.859c0.099,0.183,0.152,0.389,0.152,0.594V21.585z M36.952,8.891
		l-0.64,0.404l5.196,8.152c0.099,0.183,0.16,0.389,0.16,0.594v3.55h0.762v-3.55c0-0.335-0.091-0.678-0.274-0.983L36.952,8.891z
		 M42.156,17.059l-5.204-8.168l-0.64,0.404l5.196,8.152c0.099,0.183,0.16,0.389,0.16,0.594v3.55h0.762v-3.55
		C42.43,17.707,42.339,17.364,42.156,17.059z M42.156,17.059l-5.204-8.168l-0.64,0.404l5.196,8.152
		c0.099,0.183,0.16,0.389,0.16,0.594v3.55h0.762v-3.55C42.43,17.707,42.339,17.364,42.156,17.059z M42.156,17.059l-5.204-8.168
		l-0.64,0.404l5.196,8.152c0.099,0.183,0.16,0.389,0.16,0.594v3.55h0.762v-3.55C42.43,17.707,42.339,17.364,42.156,17.059z
		 M42.156,17.059l-5.204-8.168l-0.64,0.404l5.196,8.152c0.099,0.183,0.16,0.389,0.16,0.594v3.55h0.762v-3.55
		C42.43,17.707,42.339,17.364,42.156,17.059z"/>
	<rect x="26.507" y="1.524" style="fill:#289BD6;" width="10.994" height="3.672"/>
	<path style="fill:#53B6E3;" d="M44.221,53.478v7.81c0,0.655-0.526,1.189-1.181,1.189H20.968c-0.655,0-1.189-0.533-1.189-1.189
		v-7.81c0-0.16,0.053-0.312,0.145-0.442l1.173-1.669h21.806l1.181,1.669C44.175,53.166,44.221,53.318,44.221,53.478z M44.084,40.038
		l-1.105-1.554H21.021l-1.097,1.554c-0.091,0.13-0.145,0.282-0.145,0.442v7.086c0,0.16,0.053,0.312,0.145,0.442l1.303,1.836h21.554
		l1.303-1.836c0.091-0.13,0.137-0.282,0.137-0.442V40.48C44.221,40.32,44.175,40.168,44.084,40.038z M44.084,27.048l-1.288-1.821
		H21.211l-1.288,1.821c-0.091,0.13-0.145,0.282-0.145,0.442v7.086c0,0.16,0.053,0.312,0.145,0.442l1.356,1.92v0.023h21.44v-0.023
		l1.364-1.92c0.091-0.13,0.137-0.282,0.137-0.442v-7.086C44.221,27.33,44.175,27.177,44.084,27.048z"/>
</g>
<g id="Layer_1">
</g>
</svg>
