<?xml version="1.0" encoding="iso-8859-1"?>
<!-- Generator: Adobe Illustrator 23.0.4, SVG Export Plug-In . SVG Version: 6.00 Build 0)  -->
<svg version="1.1" xmlns="http://www.w3.org/2000/svg" xmlns:xlink="http://www.w3.org/1999/xlink" x="0px" y="0px"
	 viewBox="0 0 64 64" style="enable-background:new 0 0 64 64;" xml:space="preserve">
<g id="bottle-13">
	<path style="fill:#933815;" d="M36.765,4.278h0.366c0.249,0,0.483-0.132,0.614-0.344c0.139-0.212,0.154-0.483,0.044-0.709
		l-1.36-2.808C36.304,0.161,36.011,0,35.726,0h-7.452c-0.278,0-0.534,0.161-0.658,0.417l-1.353,2.808
		c-0.11,0.227-0.095,0.497,0.037,0.709c0.132,0.212,0.366,0.344,0.622,0.344h0.329c-1.514,4.337-7.416,21.597-7.416,25.751v31.675
		c0,1.265,1.031,2.296,2.296,2.296h19.746c1.265,0,2.289-1.031,2.289-2.296V30.029C44.166,25.575,38.279,8.586,36.765,4.278z
		 M28.735,1.463h6.575l0.651,1.353h-0.19v0.007c-0.015,0-0.029-0.007-0.044-0.007h-7.643L28.735,1.463z M42.703,61.704
		c0,0.461-0.373,0.834-0.826,0.834H22.131c-0.461,0-0.834-0.373-0.834-0.834v-10.1h21.406V61.704z M42.703,50.141H21.297V34.337
		h21.406V50.141z M42.703,32.874H21.297v-2.845c0-4.044,6.37-22.496,7.496-25.751h6.414c1.141,3.218,7.496,21.406,7.496,25.751
		V32.874z"/>
	<rect x="21.297" y="34.337" style="fill:#F6EADD;" width="21.406" height="15.804"/>
	<path style="fill:#D77918;" d="M35.207,4.278h-6.414c-1.126,3.254-7.496,21.706-7.496,25.751v2.845h21.406v-2.845
		C42.703,25.685,36.348,7.496,35.207,4.278z M40.875,30.029c0-2.911-2.75-11.775-5.054-18.7l0.695-0.234
		c2.326,6.977,5.09,15.929,5.09,18.934H40.875z M21.297,51.604v10.1c0,0.461,0.373,0.834,0.834,0.834h19.746
		c0.453,0,0.826-0.373,0.826-0.834v-10.1H21.297z"/>
</g>
<g id="Layer_1">
</g>
</svg>
