<?xml version="1.0" encoding="iso-8859-1"?>
<!-- Generator: Adobe Illustrator 23.0.4, SVG Export Plug-In . SVG Version: 6.00 Build 0)  -->
<svg version="1.1" xmlns="http://www.w3.org/2000/svg" xmlns:xlink="http://www.w3.org/1999/xlink" x="0px" y="0px"
	 viewBox="0 0 64 64" style="enable-background:new 0 0 64 64;" xml:space="preserve">
<g id="bottle-14">
	<path style="fill:#06407C;" d="M18.771,39.68v15.636h26.458V39.68H18.771z M43.775,53.862H20.225V41.135h23.549V53.862z
		 M40.655,30.524l-0.349,0.633c5.658,3.091,9.207,9.564,9.033,16.509l0.727,0.015C50.247,40.473,46.553,33.738,40.655,30.524z
		 M40.655,30.524l-0.349,0.633c5.658,3.091,9.207,9.564,9.033,16.509l0.727,0.015C50.247,40.473,46.553,33.738,40.655,30.524z
		 M18.771,55.316h26.458V39.68H18.771V55.316z M20.225,41.135h23.549v12.727H20.225V41.135z M40.756,27.418
		c-1.033-0.531-1.789-1.375-2.138-2.371c-1.782-5.185-1.644-13.265-1.542-15.935h0.531c0.4,0,0.727-0.32,0.727-0.727V3.622
		c0-0.4-0.327-0.727-0.727-0.727h-1.229V0.727c0-0.4-0.327-0.727-0.727-0.727h-7.295c-0.407,0-0.727,0.327-0.727,0.727v2.167H26.4
		c-0.407,0-0.727,0.327-0.727,0.727v4.764c0,0.407,0.32,0.727,0.727,0.727h0.247c0.102,2.698,0.24,10.916-1.607,16.102
		c-0.356,0.989-1.113,1.84-2.138,2.393c-7.084,3.818-11.491,11.542-11.491,20.16c0,5.484,1.833,10.764,5.156,14.873
		c0.705,0.865,1.753,1.36,2.88,1.36H44.56c1.127,0,2.175-0.495,2.873-1.36c3.331-4.109,5.156-9.389,5.156-14.873
		C52.589,39.098,47.942,31.105,40.756,27.418z M29.084,1.455h5.84v1.44h-5.84V1.455z M27.127,4.349h9.753v3.309h-9.753V4.349z
		 M46.305,61.724c-0.422,0.524-1.062,0.822-1.745,0.822H19.447c-0.691,0-1.324-0.298-1.745-0.822
		c-3.12-3.847-4.836-8.807-4.836-13.956c0-8.08,4.109-15.316,10.727-18.88c1.345-0.727,2.342-1.855,2.815-3.185
		c1.949-5.447,1.811-13.745,1.695-16.589h7.513c-0.109,2.815-0.247,10.96,1.629,16.407c0.465,1.36,1.476,2.487,2.844,3.193
		c6.713,3.44,11.047,10.924,11.047,19.055C51.135,52.916,49.418,57.876,46.305,61.724z M40.655,30.524l-0.349,0.633
		c5.658,3.091,9.207,9.564,9.033,16.509l0.727,0.015C50.247,40.473,46.553,33.738,40.655,30.524z M18.771,55.316h26.458V39.68
		H18.771V55.316z M20.225,41.135h23.549v12.727H20.225V41.135z M18.771,39.68v15.636h26.458V39.68H18.771z M43.775,53.862H20.225
		V41.135h23.549V53.862z M40.655,30.524l-0.349,0.633c5.658,3.091,9.207,9.564,9.033,16.509l0.727,0.015
		C50.247,40.473,46.553,33.738,40.655,30.524z M18.771,39.68v15.636h26.458V39.68H18.771z M43.775,53.862H20.225V41.135h23.549
		V53.862z M40.655,30.524l-0.349,0.633c5.658,3.091,9.207,9.564,9.033,16.509l0.727,0.015
		C50.247,40.473,46.553,33.738,40.655,30.524z"/>
	<path style="fill:#78CAB9;" d="M40.087,28.713c-1.367-0.705-2.378-1.833-2.844-3.193c-1.876-5.447-1.738-13.593-1.629-16.407
		h-7.513c0.116,2.844,0.255,11.142-1.695,16.589c-0.473,1.331-1.469,2.458-2.815,3.185c-6.618,3.564-10.727,10.8-10.727,18.88
		c0,5.149,1.716,10.109,4.836,13.956c0.422,0.524,1.055,0.822,1.745,0.822H44.56c0.684,0,1.324-0.298,1.745-0.822
		c3.113-3.847,4.829-8.807,4.829-13.956C51.135,39.636,46.8,32.153,40.087,28.713z M45.229,55.316H18.771V39.68h26.458V55.316z
		 M40.305,31.156l0.349-0.633c5.898,3.215,9.593,9.949,9.411,17.156l-0.727-0.015C49.513,40.72,45.964,34.247,40.305,31.156z"/>
	<rect x="20.225" y="41.135" style="fill:#F6EADD;" width="23.549" height="12.727"/>
</g>
<g id="Layer_1">
</g>
</svg>
