<?xml version="1.0" encoding="iso-8859-1"?>
<!-- Generator: Adobe Illustrator 23.0.4, SVG Export Plug-In . SVG Version: 6.00 Build 0)  -->
<svg version="1.1" xmlns="http://www.w3.org/2000/svg" xmlns:xlink="http://www.w3.org/1999/xlink" x="0px" y="0px"
	 viewBox="0 0 64 64" style="enable-background:new 0 0 64 64;" xml:space="preserve">
<g id="bottle-12">
	<path style="fill:#00398D;" d="M41.373,31.367c0-0.943-0.351-1.803-0.688-2.629c-0.275-0.681-0.537-1.321-0.537-1.879
		c0-0.736,0.31-1.5,0.612-2.237c0.303-0.743,0.612-1.507,0.612-2.271c0-10.687-4.989-14.851-5.836-15.484l-0.427-0.599V5.382h0.117
		c0.378,0,0.688-0.31,0.688-0.688V0.688C35.916,0.31,35.606,0,35.228,0h-6.262c-0.385,0-0.688,0.31-0.688,0.688v4.005
		c0,0.358,0.268,0.633,0.612,0.674v1.053l-0.385,0.42c-0.723,0.523-5.877,4.652-5.877,15.511c0,0.764,0.317,1.528,0.619,2.271
		c0.303,0.736,0.612,1.5,0.612,2.237c0,0.557-0.262,1.197-0.544,1.879c-0.337,0.826-0.688,1.686-0.688,2.629
		c0,0.86,0.337,1.672,0.661,2.464c0.289,0.723,0.571,1.404,0.571,2.044c0,0.612-0.275,1.287-0.564,1.996
		c-0.33,0.798-0.668,1.631-0.668,2.512c0,0.908,0.344,1.755,0.681,2.567c0.282,0.695,0.551,1.349,0.551,1.941
		c0,0.674-0.289,1.376-0.592,2.12c-0.31,0.771-0.64,1.562-0.64,2.381c0,1.032,0.385,1.968,0.729,2.801
		c0.255,0.633,0.502,1.232,0.502,1.707c0,1.252-0.262,1.672-0.557,2.154c-0.317,0.509-0.674,1.087-0.674,2.347v3.069
		c0,1.397,1.135,2.532,2.532,2.532h13.688c1.39,0,2.526-1.135,2.526-2.532v-3.069c0-1.259-0.358-1.837-0.668-2.347
		c-0.303-0.482-0.557-0.902-0.557-2.154c0-0.475,0.241-1.074,0.502-1.707c0.337-0.833,0.723-1.769,0.723-2.801
		c0-0.819-0.323-1.61-0.64-2.381c-0.303-0.743-0.585-1.445-0.585-2.12c0-0.592,0.268-1.246,0.551-1.941
		c0.33-0.812,0.674-1.659,0.674-2.567c0-0.881-0.337-1.714-0.661-2.512c-0.289-0.709-0.564-1.383-0.564-1.996
		c0-0.64,0.275-1.321,0.571-2.044C41.043,33.039,41.373,32.227,41.373,31.367z M29.653,1.376h4.886v2.629h-4.886V1.376z
		 M38.84,27.548c0.117,0.585,0.344,1.156,0.571,1.714c0.303,0.736,0.585,1.431,0.585,2.106c0,0.585-0.268,1.246-0.551,1.948
		c-0.248,0.599-0.502,1.218-0.612,1.872h-3.234v1.376h3.234c0.117,0.626,0.358,1.239,0.599,1.831
		c0.289,0.709,0.564,1.376,0.564,1.989c0,0.64-0.275,1.321-0.571,2.051c-0.234,0.571-0.475,1.156-0.585,1.769h-3.241v1.376h3.234
		c0.117,0.695,0.385,1.349,0.626,1.947c0.275,0.681,0.537,1.314,0.537,1.865c0,0.757-0.317,1.528-0.619,2.278
		c-0.213,0.523-0.413,1.032-0.523,1.542h-3.255v1.376h3.2c0.103,1.156,0.447,1.727,0.736,2.195c0.268,0.434,0.461,0.743,0.461,1.617
		v3.069c0,0.64-0.516,1.156-1.149,1.156H25.16c-0.633,0-1.156-0.516-1.156-1.156v-3.069c0-0.874,0.2-1.184,0.468-1.617
		c0.289-0.468,0.633-1.039,0.729-2.195h3.296v-1.376h-3.345c-0.11-0.509-0.31-1.018-0.523-1.542c-0.31-0.75-0.626-1.521-0.626-2.278
		c0-0.551,0.262-1.184,0.537-1.865c0.248-0.599,0.516-1.252,0.633-1.947h3.324v-1.376h-3.331c-0.117-0.612-0.351-1.197-0.585-1.769
		c-0.296-0.729-0.578-1.411-0.578-2.051c0-0.612,0.275-1.28,0.564-1.989c0.241-0.592,0.489-1.204,0.599-1.831h3.331v-1.376h-3.324
		c-0.117-0.654-0.365-1.273-0.612-1.872c-0.289-0.702-0.557-1.363-0.557-1.948c0-0.674,0.289-1.369,0.592-2.106
		c0.227-0.557,0.454-1.129,0.564-1.714h3.338v-1.376h-3.324c-0.117-0.743-0.399-1.438-0.654-2.071
		c-0.262-0.647-0.516-1.252-0.516-1.748c0-10.646,5.292-14.383,5.347-14.417c0.041-0.034,0.089-0.069,0.124-0.11l0.612-0.681
		c0.117-0.124,0.179-0.289,0.179-0.461V5.382h3.468v1.101c0,0.138,0.048,0.275,0.124,0.392l0.619,0.881
		c0.048,0.069,0.11,0.131,0.179,0.179c0.055,0.034,5.34,3.709,5.34,14.417c0,0.495-0.248,1.101-0.509,1.748
		c-0.262,0.633-0.537,1.328-0.661,2.071h-3.228v1.376H38.84z"/>
	<path style="fill:#C4EAF0;" d="M38.834,35.186c0.11-0.654,0.365-1.273,0.612-1.872c0.282-0.702,0.551-1.363,0.551-1.948
		c0-0.674-0.282-1.369-0.585-2.106c-0.227-0.557-0.454-1.129-0.571-1.714h-3.241v-1.376h3.228c0.124-0.743,0.399-1.438,0.661-2.071
		c0.262-0.647,0.509-1.252,0.509-1.748c0-10.708-5.285-14.383-5.34-14.417c-0.069-0.048-0.131-0.11-0.179-0.179l-0.619-0.881
		c-0.076-0.117-0.124-0.255-0.124-0.392V5.382h-3.468v1.301c0,0.172-0.062,0.337-0.179,0.461l-0.612,0.681
		c-0.034,0.041-0.083,0.076-0.124,0.11c-0.055,0.034-5.347,3.771-5.347,14.417c0,0.495,0.255,1.101,0.516,1.748
		c0.255,0.633,0.537,1.328,0.654,2.071h3.324v1.376H25.16c-0.11,0.585-0.337,1.156-0.564,1.714
		c-0.303,0.736-0.592,1.431-0.592,2.106c0,0.585,0.268,1.246,0.557,1.948c0.248,0.599,0.495,1.218,0.612,1.872h3.324v1.376h-3.331
		c-0.11,0.626-0.358,1.239-0.599,1.831c-0.289,0.709-0.564,1.376-0.564,1.989c0,0.64,0.282,1.321,0.578,2.051
		c0.234,0.571,0.468,1.156,0.585,1.769h3.331v1.376h-3.324c-0.117,0.695-0.385,1.349-0.633,1.947
		c-0.275,0.681-0.537,1.314-0.537,1.865c0,0.757,0.317,1.528,0.626,2.278c0.213,0.523,0.413,1.032,0.523,1.542h3.345v1.376h-3.296
		c-0.096,1.156-0.44,1.727-0.729,2.195c-0.268,0.434-0.468,0.743-0.468,1.617v3.069c0,0.64,0.523,1.156,1.156,1.156h13.688
		c0.633,0,1.149-0.516,1.149-1.156v-3.069c0-0.874-0.193-1.184-0.461-1.617c-0.289-0.468-0.633-1.039-0.736-2.195h-3.2v-1.376h3.255
		c0.11-0.509,0.31-1.018,0.523-1.542c0.303-0.75,0.619-1.521,0.619-2.278c0-0.551-0.262-1.184-0.537-1.865
		c-0.241-0.599-0.509-1.252-0.626-1.947h-3.234v-1.376h3.241c0.11-0.612,0.351-1.197,0.585-1.769
		c0.296-0.729,0.571-1.411,0.571-2.051c0-0.612-0.275-1.28-0.564-1.989c-0.241-0.592-0.482-1.204-0.599-1.831h-3.234v-1.376H38.834z
		 M33.397,9.297l0.385-0.571c0.2,0.138,5.017,3.482,5.017,13.206h-0.688C38.111,12.607,33.445,9.325,33.397,9.297z"/>
</g>
<g id="Layer_1">
</g>
</svg>
