<?xml version="1.0" encoding="iso-8859-1"?>
<!-- Generator: Adobe Illustrator 23.0.4, SVG Export Plug-In . SVG Version: 6.00 Build 0)  -->
<svg version="1.1" xmlns="http://www.w3.org/2000/svg" xmlns:xlink="http://www.w3.org/1999/xlink" x="0px" y="0px"
	 viewBox="0 0 64 64" style="enable-background:new 0 0 64 64;" xml:space="preserve">
<g id="bottle-02">
	<path style="fill:#231F20;" d="M40.377,24.779l-2.869-6.457c-0.042-0.093-0.068-0.193-0.078-0.295L36.059,4.322h0.221
		c0.221,0,0.429-0.106,0.558-0.286c0.129-0.179,0.165-0.41,0.095-0.62L35.951,0.47C35.858,0.19,35.594,0,35.298,0h-6.597
		c-0.296,0-0.559,0.19-0.653,0.47l-0.982,2.945c-0.07,0.21-0.035,0.441,0.095,0.62c0.129,0.18,0.337,0.286,0.558,0.286h0.221
		L26.57,18.027c-0.01,0.102-0.037,0.202-0.078,0.296l-2.87,6.456c-0.669,1.507-1.009,3.107-1.009,4.755v32.125
		c0,1.291,1.05,2.341,2.341,2.341h14.09c1.291,0,2.341-1.05,2.341-2.341V29.534C41.386,27.886,41.047,26.286,40.377,24.779z
		 M40.01,61.659c0,0.532-0.433,0.965-0.965,0.965h-6.952h-7.138c-0.532,0-0.965-0.433-0.965-0.965V29.534
		c0-1.455,0.299-2.867,0.89-4.196l2.869-6.455c0.101-0.228,0.166-0.47,0.191-0.718l1.384-13.843h3.355V2.945h-3.978h-0.027
		l0.523-1.569h5.605l0.523,1.569h-0.027c-0.195,0-0.38,0.082-0.51,0.226c-0.131,0.144-0.194,0.337-0.175,0.53l1.446,14.462
		c0.025,0.249,0.089,0.49,0.191,0.718l2.869,6.456c0.591,1.33,0.89,2.742,0.89,4.196V61.659z M37.95,26.103
		c0.559,1.258,0.843,2.594,0.843,3.97v30.052h-0.688V30.074c0-1.279-0.264-2.521-0.784-3.691l-2.456-5.526
		c-0.076-0.171-0.124-0.352-0.143-0.539l0.685-0.069c0.011,0.114,0.041,0.225,0.087,0.329L37.95,26.103z"/>
</g>
<g id="Layer_1">
</g>
</svg>
